<svg width="128" height="128" viewBox="0 0 128 128" fill="none" xmlns="http://www.w3.org/2000/svg">
<g clip-path="url(#clip0)">
<path d="M128 63.9998C128.011 72.6635 126.258 81.2386 122.846 89.2021L122.634 89.6907C116.863 102.82 106.855 113.635 94.2126 120.406C81.5698 127.177 67.0217 129.512 52.8947 127.04C52.5103 126.972 52.1266 126.901 51.7434 126.828C47.7848 126.06 43.9083 124.917 40.1666 123.414C39.5588 123.169 38.9554 122.916 38.3565 122.654C37.9475 122.476 37.5385 122.293 37.1333 122.103C26.0486 116.966 16.6637 108.767 10.0846 98.4723C3.50551 88.1778 0.00650728 76.2171 0 63.9998C0 28.6541 28.6542 0 64 0C99.3458 0 128 28.6541 128 63.9998Z" fill="url(#paint0_linear)"/>
<path opacity="0.2" d="M52.8947 127.04C52.5103 126.972 52.1266 126.901 51.7435 126.828C51.4936 119.574 50.6358 104.685 47.7103 89.0926C46.1104 80.5586 43.8893 71.8107 40.8086 63.9905C39.7531 61.2847 38.5476 58.6398 37.1977 56.0682C34.0848 50.1889 30.3092 45.2393 25.7307 41.8859L26.4048 40.9657C30.2126 43.7567 33.6348 47.675 36.6713 52.7205C37.5821 54.2315 38.4569 55.8435 39.2957 57.5565C40.1951 59.3894 41.0528 61.3352 41.8689 63.3941C42.3897 64.7044 42.8927 66.0601 43.3781 67.4613C45.4912 73.5451 47.2875 80.4866 48.7669 88.2859C49.0945 90.009 49.4063 91.7744 49.7023 93.582C51.9953 107.588 52.6864 120.538 52.8947 127.04Z" fill="black"/>
<path opacity="0.2" d="M38.3563 122.655C37.9474 122.477 37.5384 122.293 37.1332 122.104C36.7374 117.805 36.0103 112.473 34.6811 107.412C34.0989 105.139 33.3515 102.911 32.4449 100.747C30.9282 97.1967 28.9647 94.1785 26.4255 92.3172L27.0996 91.3988C29.7581 93.3453 31.8087 96.4223 33.3935 100.022C35.1791 104.078 36.3701 108.798 37.1634 113.308C37.7523 116.658 38.1234 119.894 38.3563 122.655Z" fill="black"/>
<path opacity="0.2" d="M19.3633 41.8595C22.5098 41.8595 25.0605 39.3088 25.0605 36.1623C25.0605 33.0157 22.5098 30.465 19.3633 30.465C16.2168 30.465 13.666 33.0157 13.666 36.1623C13.666 39.3088 16.2168 41.8595 19.3633 41.8595Z" fill="black"/>
<path opacity="0.2" d="M21.198 90.9026C24.3444 90.9026 26.8952 88.3519 26.8952 85.2054C26.8952 82.0589 24.3444 79.5081 21.198 79.5081C18.0515 79.5081 15.5007 82.0589 15.5007 85.2054C15.5007 88.3519 18.0515 90.9026 21.198 90.9026Z" fill="black"/>
<path opacity="0.2" d="M41.9815 45.7319C40.7734 52.5479 43.4404 58.7197 43.4404 58.7197C43.4404 58.7197 48.0661 53.8406 49.2742 47.0245C50.4823 40.2084 47.8153 34.0366 47.8153 34.0366C47.8153 34.0366 43.1896 38.9158 41.9815 45.7319Z" fill="black"/>
<path opacity="0.2" d="M23.0472 61.9117C29.5484 64.289 36.0813 62.7634 36.0813 62.7634C36.0813 62.7634 32.0736 57.3835 25.5723 55.0062C19.071 52.6289 12.5381 54.1545 12.5381 54.1545C12.5381 54.1545 16.5459 59.5344 23.0472 61.9117Z" fill="black"/>
<path opacity="0.2" d="M21.9448 105.341C26.5016 107.007 31.0871 105.92 31.0871 105.92C31.0871 105.92 28.2845 102.132 23.7276 100.466C19.1707 98.7993 14.5852 99.8863 14.5852 99.8863C14.5852 99.8863 17.3879 103.675 21.9448 105.341Z" fill="black"/>
<path d="M63.8687 78.1727C77.6485 78.1727 88.8192 67.002 88.8192 53.2221C88.8192 39.4423 77.6485 28.2715 63.8687 28.2715C50.0889 28.2715 38.9182 39.4423 38.9182 53.2221C38.9182 67.002 50.0889 78.1727 63.8687 78.1727Z" fill="url(#paint1_linear)"/>
<path d="M54.1223 72.3248C54.1223 72.3248 57.2411 87.1392 57.2411 88.6986C57.2411 90.258 72.0555 97.2754 72.0555 97.2754L85.3105 94.9362L89.9887 80.9015C89.9887 80.9015 82.1917 69.206 82.1917 64.5277L54.1223 72.3248Z" fill="#D0CDE1"/>
<path d="M122.846 89.2024L122.634 89.6909C116.863 102.82 106.855 113.635 94.2126 120.406C81.5698 127.177 67.0217 129.512 52.8947 127.04C52.5103 126.972 52.1266 126.901 51.7435 126.828C47.7848 126.06 43.9083 124.917 40.1667 123.414C39.5588 123.169 38.9555 122.916 38.3565 122.654C37.9475 122.476 37.5385 122.293 37.1333 122.103C33.4604 120.402 29.9575 118.355 26.6717 115.991L23.7141 107.412L25.3766 106.143L28.7962 103.532L32.445 100.747L33.3936 100.022L47.7103 89.0926L48.7669 88.286L56.2083 82.6056L56.2102 82.6037C56.2102 82.6037 64.2575 95.716 75.9536 91.8173C87.6497 87.9186 87.3941 76.7396 87.3941 76.7396L122.846 89.2024Z" fill="#2F2E41"/>
<path d="M42.2315 33.1202C42.2315 33.1202 50.1532 15.9565 65.3365 19.9174C80.5198 23.8782 89.1016 29.8195 89.7618 35.7608C90.4219 41.7021 89.4317 50.614 89.4317 50.614C89.4317 50.614 87.7814 38.4013 77.2191 41.0419C66.6568 43.6825 50.1532 41.702 50.1532 41.702L47.5127 65.4672C47.5127 65.4672 44.542 61.1762 41.2413 63.8168C37.9406 66.4574 31.6692 38.4013 42.2315 33.1202Z" fill="#2F2E41"/>
<path d="M40.1665 123.414C39.5587 123.17 38.9553 122.917 38.3563 122.655C37.9474 122.477 37.5384 122.293 37.1331 122.104C31.0587 119.287 25.4626 115.537 20.5481 110.989C22.2882 108.618 23.714 107.412 23.714 107.412H35.4101L37.1634 113.308L40.1665 123.414Z" fill="#2F2E41"/>
<path d="M112.6 87.9186L122.634 89.6909C119.949 95.8078 116.322 101.467 111.886 106.462L112.6 87.9186Z" fill="#2F2E41"/>
</g>
<defs>
<linearGradient id="paint0_linear" x1="0" y1="0" x2="154" y2="157" gradientUnits="userSpaceOnUse">
<stop stop-color="#E9B395"/>
<stop offset="1" stop-color="#D3936F"/>
</linearGradient>
<linearGradient id="paint1_linear" x1="63.8687" y1="28.2715" x2="63.8687" y2="78.1727" gradientUnits="userSpaceOnUse">
<stop stop-color="#D0CDE1"/>
<stop offset="1" stop-color="#D0CDE1"/>
</linearGradient>
<clipPath id="clip0">
<rect width="128" height="128" fill="white"/>
</clipPath>
</defs>
</svg>
