<svg width="130" height="32" viewBox="0 0 130 32" fill="none" xmlns="http://www.w3.org/2000/svg">
<g clip-path="url(#clip0)">
<path d="M47.5689 18.1446C47.5689 18.6711 47.5324 19.1705 47.4599 19.6425H37.4923C37.6557 20.8408 38.0822 21.7577 38.7723 22.3931C39.4621 23.0105 40.3518 23.3191 41.4412 23.3191C42.3307 23.3191 43.0661 23.1647 43.6472 22.8561C44.2463 22.5293 44.6548 22.0663 44.8727 21.4672L47.2965 22.4748C46.2797 24.5809 44.328 25.634 41.4412 25.634C39.2987 25.634 37.6193 25.0076 36.4029 23.7548C35.2046 22.502 34.6055 20.7681 34.6055 18.5531C34.6055 16.3199 35.1864 14.586 36.3484 13.3514C37.5103 12.0986 39.1444 11.4723 41.2506 11.4723C43.2477 11.4723 44.8 12.0805 45.9076 13.2969C47.015 14.5134 47.5689 16.1293 47.5689 18.1446ZM41.2506 13.7872C40.1975 13.7872 39.3442 14.0958 38.6906 14.7131C38.055 15.3304 37.6557 16.2291 37.4923 17.4093H44.8455C44.7001 16.2655 44.3098 15.3758 43.6744 14.7403C43.057 14.1049 42.249 13.7872 41.2506 13.7872ZM62.831 11.7446L57.4114 25.3616H54.225L48.7782 11.7446H51.9918L55.8318 22.9923L59.7808 11.7446H62.831ZM77.4092 18.1446C77.4092 18.6711 77.3729 19.1705 77.3003 19.6425H67.3326C67.496 20.8408 67.9227 21.7577 68.6126 22.3931C69.3027 23.0105 70.1922 23.3191 71.2815 23.3191C72.1712 23.3191 72.9066 23.1647 73.4875 22.8561C74.0867 22.5293 74.4952 22.0663 74.713 21.4672L77.1369 22.4748C76.1202 24.5809 74.1684 25.634 71.2815 25.634C69.1392 25.634 67.4598 25.0076 66.2432 23.7548C65.0449 22.502 64.4458 20.7681 64.4458 18.5531C64.4458 16.3199 65.0269 14.586 66.1888 13.3514C67.3508 12.0986 68.9849 11.4723 71.0909 11.4723C73.0882 11.4723 74.6405 12.0805 75.7479 13.2969C76.8555 14.5134 77.4092 16.1293 77.4092 18.1446ZM71.0909 13.7872C70.038 13.7872 69.1845 14.0958 68.5309 14.7131C67.8955 15.3304 67.496 16.2291 67.3326 17.4093H74.6858C74.5406 16.2655 74.1503 15.3758 73.5147 14.7403C72.8975 14.1049 72.0895 13.7872 71.0909 13.7872ZM88.3861 11.4723C89.8929 11.4723 91.1185 11.908 92.0626 12.7795C93.0249 13.651 93.5061 14.9038 93.5061 16.5378V25.3616H90.592V17.4637C90.592 15.0672 89.6206 13.8689 87.678 13.8689C86.6613 13.8689 85.7898 14.2229 85.0635 14.931C84.3372 15.6209 83.9741 16.6921 83.9741 18.1446V25.3616H81.0601V11.7446H83.6473L83.7835 14.005C84.2375 13.1517 84.8638 12.5162 85.6627 12.0986C86.4615 11.6811 87.3694 11.4723 88.3861 11.4723ZM106.586 24.4629C106.15 24.826 105.615 25.1165 104.979 25.3344C104.362 25.534 103.69 25.634 102.964 25.634C101.711 25.634 100.703 25.3254 99.9409 24.708C99.1966 24.0726 98.8153 23.0922 98.7971 21.7667V14.0323H96.2099V11.7446H98.7971V8.55822L101.711 7.7412V11.7446H106.477V14.0323H101.711V21.2765C101.711 21.9301 101.884 22.4203 102.229 22.7472C102.592 23.0557 103.082 23.2101 103.699 23.2101C104.534 23.2101 105.27 22.9196 105.905 22.3386L106.586 24.4629ZM112.137 21.3855C112.137 22.0573 112.237 22.5293 112.437 22.8016C112.636 23.0557 113.009 23.1829 113.553 23.1829C113.898 23.1829 114.189 23.1647 114.425 23.1284C114.679 23.074 114.988 22.974 115.351 22.8289L115.024 25.171C114.407 25.4796 113.653 25.634 112.764 25.634C111.547 25.634 110.648 25.3254 110.067 24.708C109.505 24.0906 109.223 23.1194 109.223 21.794V5.61694H112.137V21.3855ZM123.442 26.9684C122.842 28.5298 122.162 29.6283 121.399 30.2637C120.636 30.8992 119.638 31.2169 118.403 31.2169C117.695 31.2169 117.078 31.1262 116.551 30.9446C116.043 30.7812 115.589 30.5089 115.19 30.1276L116.034 27.8944C116.579 28.548 117.323 28.8748 118.267 28.8748C118.812 28.8748 119.266 28.7296 119.629 28.4391C120.01 28.1667 120.346 27.6583 120.636 26.914L121.236 25.4433L119.819 22.0663L115.571 11.7446H118.839L121.835 20.2961L122.625 22.8561L123.55 20.051L126.383 11.7446H129.406L123.442 26.9684Z" fill="#272727"/>
<path d="M4.04189 4.95216C9.25659 -0.177411 17.7113 -0.177411 22.9259 4.95216C28.1407 10.0834 28.1407 18.4012 22.9259 23.5307L13.4831 32L4.04189 23.5307C-1.17282 18.4012 -1.17282 10.0834 4.04189 4.95216Z" fill="url(#paint0_linear)"/>
<path d="M18.5165 14.2804C18.5165 13.7154 18.0542 13.2532 17.4893 13.2532H13.329C12.764 13.2532 12.3018 13.7154 12.3018 14.2804C12.3018 14.8454 12.764 15.3076 13.329 15.3076H17.4893C18.0542 15.3076 18.5165 14.8454 18.5165 14.2804ZM13.329 7.08985C17.293 7.08985 20.5196 10.3164 20.5196 14.2804C20.5196 18.2444 17.293 21.471 13.329 21.471C9.36494 21.471 6.13842 18.2444 6.13842 14.2804C6.13842 10.3164 9.36494 7.08985 13.329 7.08985ZM13.329 5.0354C8.22266 5.0354 4.08398 9.17409 4.08398 14.2804C4.08398 19.3867 8.22266 23.5255 13.329 23.5255C18.4353 23.5255 22.5741 19.3867 22.5741 14.2804C22.5741 9.17409 18.4353 5.0354 13.329 5.0354ZM14.3562 10.2742C14.3562 9.70927 13.894 9.24701 13.329 9.24701C12.764 9.24701 12.3018 9.70927 12.3018 10.2742V14.2804C12.3018 14.8454 12.764 15.3076 13.329 15.3076C13.894 15.3076 14.3562 14.8454 14.3562 14.2804V10.2742Z" fill="white"/>
</g>
<defs>
<linearGradient id="paint0_linear" x1="0.130859" y1="1.10498" x2="37.0133" y2="33.6078" gradientUnits="userSpaceOnUse">
<stop stop-color="#00CDAC"/>
<stop offset="1" stop-color="#02AAB0"/>
</linearGradient>
<clipPath id="clip0">
<rect width="129.872" height="32" fill="white"/>
</clipPath>
</defs>
</svg>
