<svg width="28" height="32" viewBox="0 0 28 32" fill="none" xmlns="http://www.w3.org/2000/svg">
<path d="M4.05091 3.98478C9.45213 -1.32826 18.2092 -1.32826 23.6103 3.98478C29.0117 9.29954 29.0117 17.9148 23.6103 23.2278L13.8298 32L4.05091 23.2278C-1.3503 17.9148 -1.3503 9.29954 4.05091 3.98478Z" fill="url(#paint0_linear)"/>
<path d="M19.0432 13.6466C19.0432 13.0614 18.5644 12.5827 17.9793 12.5827H13.6701C13.085 12.5827 12.6062 13.0614 12.6062 13.6466C12.6062 14.2318 13.085 14.7106 13.6701 14.7106H17.9793C18.5644 14.7106 19.0432 14.2318 19.0432 13.6466ZM13.6701 6.19889C17.776 6.19889 21.1179 9.54079 21.1179 13.6466C21.1179 17.7524 17.776 21.0944 13.6701 21.0944C9.56432 21.0944 6.2224 17.7524 6.2224 13.6466C6.2224 9.54079 9.56432 6.19889 13.6701 6.19889ZM13.6701 4.07095C8.38118 4.07095 4.09448 8.35767 4.09448 13.6466C4.09448 18.9356 8.38118 23.2223 13.6701 23.2223C18.9591 23.2223 23.2459 18.9356 23.2459 13.6466C23.2459 8.35767 18.9591 4.07095 13.6701 4.07095ZM14.7341 9.49717C14.7341 8.91199 14.2553 8.4332 13.6701 8.4332C13.085 8.4332 12.6062 8.91199 12.6062 9.49717V13.6466C12.6062 14.2318 13.085 14.7106 13.6701 14.7106C14.2553 14.7106 14.7341 14.2318 14.7341 13.6466V9.49717Z" fill="white"/>
<defs>
<linearGradient id="paint0_linear" x1="0" y1="0" x2="38.2016" y2="33.6654" gradientUnits="userSpaceOnUse">
<stop stop-color="#00CDAC"/>
<stop offset="1" stop-color="#02AAB0"/>
</linearGradient>
</defs>
</svg>
