<svg width="200" height="127" viewBox="0 0 200 127" fill="none" xmlns="http://www.w3.org/2000/svg">
<path d="M29.8591 97.7465C29.8591 98.8356 29.784 99.8687 29.6338 100.845H9.01407C9.3521 103.324 10.2347 105.221 11.662 106.535C13.0892 107.812 14.9296 108.451 17.1831 108.451C19.0235 108.451 20.5446 108.131 21.7465 107.493C22.9859 106.817 23.831 105.859 24.2817 104.62L29.2958 106.704C27.1925 111.061 23.1549 113.239 17.1831 113.239C12.7511 113.239 9.27699 111.944 6.76055 109.352C4.28167 106.761 3.04224 103.174 3.04224 98.5916C3.04224 93.9718 4.2441 90.3849 6.64787 87.831C9.05164 85.2394 12.4319 83.9437 16.7887 83.9437C20.9202 83.9437 24.1314 85.2018 26.4225 87.7183C28.7136 90.2349 29.8591 93.5775 29.8591 97.7465ZM16.7887 88.7324C14.6103 88.7324 12.8451 89.3708 11.4929 90.6479C10.1784 91.925 9.3521 93.7842 9.01407 96.2254H24.2253C23.9249 93.8592 23.1173 92.0187 21.8028 90.7042C20.5258 89.3898 18.8545 88.7324 16.7887 88.7324ZM61.4313 84.507L50.2201 112.676H43.6285L32.3609 84.507H39.0088L46.9525 107.775L55.1215 84.507H61.4313ZM91.5891 97.7465C91.5891 98.8356 91.5137 99.8687 91.3637 100.845H70.744C71.082 103.324 71.9644 105.221 73.3919 106.535C74.819 107.812 76.6595 108.451 78.913 108.451C80.7532 108.451 82.2743 108.131 83.4764 107.493C84.7158 106.817 85.5609 105.859 86.0116 104.62L91.0257 106.704C88.9222 111.061 84.8848 113.239 78.913 113.239C74.481 113.239 71.0067 111.944 68.4905 109.352C66.0116 106.761 64.7722 103.174 64.7722 98.5916C64.7722 93.9718 65.9739 90.3849 68.3778 87.831C70.7813 85.2394 74.1616 83.9437 78.5187 83.9437C82.65 83.9437 85.8613 85.2018 88.1525 87.7183C90.4433 90.2349 91.5891 93.5775 91.5891 97.7465ZM78.5187 88.7324C76.3401 88.7324 74.575 89.3708 73.2229 90.6479C71.9081 91.925 71.082 93.7842 70.744 96.2254H85.9553C85.6546 93.8592 84.8472 92.0187 83.5327 90.7042C82.2556 89.3898 80.5841 88.7324 78.5187 88.7324ZM114.296 83.9437C117.414 83.9437 119.949 84.8451 121.902 86.6479C123.893 88.4507 124.888 91.0423 124.888 94.4225V112.676H118.859V96.338C118.859 91.3803 116.85 88.9014 112.831 88.9014C110.728 88.9014 108.925 89.6338 107.423 91.0986C105.921 92.5257 105.169 94.7419 105.169 97.7465V112.676H99.1412V84.507H104.493L104.775 89.1831C105.714 87.418 107.01 86.1032 108.662 85.2394C110.315 84.3757 112.193 83.9437 114.296 83.9437ZM151.946 110.817C151.044 111.568 149.937 112.169 148.622 112.62C147.345 113.033 145.955 113.239 144.453 113.239C141.861 113.239 139.777 112.601 138.199 111.324C136.66 110.01 135.871 107.981 135.833 105.239V89.2394H130.481V84.507H135.833V77.9155L141.861 76.2254V84.507H151.72V89.2394H141.861V104.225C141.861 105.577 142.218 106.592 142.932 107.268C143.683 107.906 144.697 108.225 145.974 108.225C147.702 108.225 149.223 107.624 150.537 106.423L151.946 110.817ZM163.429 104.451C163.429 105.84 163.636 106.817 164.049 107.38C164.462 107.906 165.232 108.169 166.359 108.169C167.072 108.169 167.673 108.131 168.162 108.056C168.687 107.944 169.326 107.737 170.077 107.437L169.401 112.282C168.124 112.92 166.565 113.239 164.725 113.239C162.208 113.239 160.349 112.601 159.148 111.324C157.983 110.047 157.401 108.038 157.401 105.296V71.831H163.429V104.451ZM186.814 116C185.575 119.23 184.167 121.502 182.589 122.817C181.012 124.131 178.946 124.789 176.392 124.789C174.927 124.789 173.65 124.601 172.561 124.225C171.509 123.887 170.57 123.324 169.744 122.535L171.49 117.915C172.617 119.268 174.157 119.944 176.11 119.944C177.237 119.944 178.176 119.643 178.927 119.042C179.716 118.479 180.411 117.427 181.012 115.887L182.251 112.845L179.321 105.859L170.533 84.507H177.293L183.49 102.197L185.124 107.493L187.04 101.69L192.899 84.507H199.152L186.814 116Z" fill="#272727"/>
<path d="M80.6257 7.95852C91.4134 -2.65284 108.903 -2.65284 119.691 7.95852C130.478 18.5733 130.478 35.7799 119.691 46.3915L100.156 63.9113L80.6257 46.3915C69.8384 35.7799 69.8384 18.5733 80.6257 7.95852Z" fill="url(#paint0_linear)"/>
<path d="M110.569 27.2554C110.569 26.0867 109.613 25.1305 108.444 25.1305H99.8377C98.669 25.1305 97.7127 26.0867 97.7127 27.2554C97.7127 28.4242 98.669 29.3804 99.8377 29.3804H108.444C109.613 29.3804 110.569 28.4242 110.569 27.2554ZM99.8377 12.3806C108.038 12.3806 114.713 19.0552 114.713 27.2554C114.713 35.4557 108.038 42.1303 99.8377 42.1303C91.6373 42.1303 84.963 35.4557 84.963 27.2554C84.963 19.0552 91.6373 12.3806 99.8377 12.3806ZM99.8377 8.13062C89.2743 8.13062 80.713 16.6922 80.713 27.2554C80.713 37.8187 89.2743 46.3803 99.8377 46.3803C110.401 46.3803 118.963 37.8187 118.963 27.2554C118.963 16.6922 110.401 8.13062 99.8377 8.13062ZM101.963 18.968C101.963 17.7993 101.006 16.843 99.8377 16.843C98.669 16.843 97.7127 17.7993 97.7127 18.968V27.2554C97.7127 28.4242 98.669 29.3804 99.8377 29.3804C101.006 29.3804 101.963 28.4242 101.963 27.2554V18.968Z" fill="white"/>
<defs>
<linearGradient id="paint0_linear" x1="72.5352" y1="0" x2="148.832" y2="67.2374" gradientUnits="userSpaceOnUse">
<stop stop-color="#00CDAC"/>
<stop offset="1" stop-color="#02AAB0"/>
</linearGradient>
</defs>
</svg>
