<svg width="570" height="303" viewBox="0 0 570 303" fill="none" xmlns="http://www.w3.org/2000/svg">
<g clip-path="url(#clip0)">
<path opacity="0.1" d="M24.1694 41.3721C25.0928 47.2311 27.4529 52.89 27.4734 58.8157C27.5503 78.178 4.05792 90.0705 0.461467 109.094C-1.67281 120.381 3.85784 131.915 11.6561 140.334C19.4545 148.753 29.3973 154.822 38.5552 161.748C63.8934 180.947 83.4243 206.783 94.9852 236.397C97.299 242.348 99.2897 248.484 99.9464 254.835C100.423 259.453 100.198 264.178 101.28 268.688C105.564 286.588 127.287 293.535 145.654 294.694C175.235 296.53 204.846 291.585 232.225 280.236C238.382 277.671 244.738 274.757 251.346 275.48C256.631 276.06 261.346 278.918 265.984 281.519C279.642 289.185 294.178 295.169 309.275 299.342C317.637 301.651 326.415 303.406 334.958 301.907C360.61 297.382 374.242 266.271 399.412 259.468C416.825 254.764 434.945 262.983 450.562 272.007C466.18 281.032 482.3 291.426 500.328 291.452C524.38 291.482 544.153 273.279 560.467 255.61C563.889 251.901 567.368 248.022 568.999 243.246C572.309 233.549 566.947 222.657 559.021 216.141C551.094 209.626 541.1 206.394 531.552 202.669C515.369 196.355 499.925 188.29 485.496 178.617C476.158 172.358 467.113 165.278 460.726 156.043C455.231 148.081 451.932 138.851 448.249 129.903C440.173 110.31 428.753 90.3988 409.683 81.205C394.112 73.694 376.027 74.5354 358.743 74.3353C333.275 74.0532 307.161 70.9903 284.582 59.2107C265.512 49.2627 249.848 33.5584 230.496 24.1542C199.713 9.20919 164.524 12.1387 131.355 12.703C115.415 12.975 96.4679 14.5654 81.1586 9.34258C69.8356 5.47934 64.0074 -2.41645 51.0017 0.764439C33.2144 5.09968 21.3271 23.2974 24.1694 41.3721Z" fill="#00CDAC"/>
<path d="M495.772 182.404C494.967 179.737 495.051 176.881 496.013 174.267C497.552 170.285 501.303 167.412 502.621 163.344C505.074 155.787 498.465 148.712 494.412 141.863C490.695 135.508 489.01 128.168 489.585 120.828C490.216 112.947 493.443 105.411 493.689 97.5097C493.91 90.1475 491.524 82.9853 489.169 76.0079C487.225 70.2413 485.244 64.4079 481.956 59.2877C475.738 49.6065 464.692 43.5218 453.333 42.5162C447.971 42.0391 442.728 43.7834 437.459 43.1011C430.143 42.1571 423.227 40.2588 415.768 40.0228C408.682 39.8125 400.848 40.7103 396.02 45.9023C392.332 49.8784 391.152 55.6194 387.776 59.8675C382.984 65.8958 374.606 67.9633 369.306 73.5453C367.016 76.0122 365.408 79.0331 364.641 82.3105C363.874 85.5878 363.973 89.0084 364.93 92.2356C365.663 94.6161 366.864 96.8273 367.644 99.1925C370.922 109.074 366.618 119.643 364.017 129.719C363.724 130.542 363.67 131.432 363.863 132.284C364.273 133.515 365.566 134.162 366.638 134.89C370.147 137.281 371.938 141.611 372.282 145.844C372.625 150.076 371.646 154.294 370.681 158.429C368.223 168.941 365.15 180.203 357.049 187.195C355.578 183.687 353.839 180.298 351.847 177.058C346.891 169.023 343.223 159.101 343.161 149.604C343.158 149.575 343.158 149.546 343.161 149.517C343.161 149.004 343.187 148.491 343.218 147.978C343.859 136.773 348.702 125.963 348.594 114.81C348.594 113.907 348.569 113.002 348.517 112.096C347.886 102.548 343.3 93.7183 338.041 85.725C334.116 79.7583 329.694 73.9968 324.03 69.6513C315.272 62.9868 304.144 60.0932 293.211 58.5643C282.278 57.0354 272.33 55.5989 261.31 54.8601C249.458 54.0649 236.417 53.6185 227.048 60.9141C214.833 70.426 214.156 88.7982 204.844 101.163C199.303 108.52 190.478 114.204 187.559 122.562C186.77 120.511 186.112 118.412 185.589 116.277C185.558 116.133 185.528 115.995 185.497 115.851C189.017 105.767 189.836 94.9364 187.872 84.4373C188.104 82.7369 188.222 81.0229 188.226 79.3068C188.284 77.4393 188.082 75.5728 187.626 73.7608C186.307 68.7637 182.67 64.767 179.156 60.9756C177.876 59.5282 176.487 58.1817 175 56.9482C165.803 45.8055 152.944 38.2949 138.721 35.7578C124.497 33.2208 109.835 35.8225 97.3524 43.0983C84.8701 50.3741 75.3805 61.8502 70.5787 75.477C65.7768 89.1038 65.9753 103.994 71.1387 117.488C70.6872 120.987 69.3328 124.388 66.8445 126.856C65.7107 127.98 64.2434 129.385 64.4896 130.822C64.4132 131.231 64.4708 131.654 64.6538 132.027C64.9059 132.475 65.2568 132.859 65.6799 133.151C69.2691 135.894 73.7391 137.226 78.2444 136.896C82.0461 148.069 89.4992 157.637 99.4024 164.057C99.4024 164.399 99.3905 164.731 99.3665 165.052C99.3665 165.622 99.3204 166.186 99.2947 166.761C99.2947 166.889 99.2947 167.017 99.2947 167.145C99.2947 167.099 99.2947 167.048 99.2947 166.997C99.2947 166.945 81.4304 190.284 64.9206 191.151C56.1064 191.613 48.4159 197.559 42.5877 204.357C35.5897 212.514 31.2698 221.893 30.9005 224.489C30.2181 229.25 25.457 252.388 25.457 252.388H162.615C160.994 260.72 158.808 271.335 158.808 271.335H380.85C380.337 264.199 379.767 257.601 379.239 252.014H407.153L407.123 252.183H535.897L544.065 239.926C542.039 204.213 520.973 184.579 495.772 182.404ZM175.169 142.509C178.066 144.068 181.178 145.188 184.404 145.834C185.805 146.121 187.369 146.3 188.565 145.515C189.357 144.917 189.943 144.087 190.242 143.14L190.304 143.294C193.767 152.016 196.974 161.015 197.594 170.383C197.651 171.265 197.687 172.148 197.692 173.035C197.706 178.379 196.603 183.667 194.455 188.56C182.855 182.46 171.669 175.605 160.968 168.038L160.245 167.73C160.245 167.787 160.496 168.428 160.794 169.511C160.865 169.772 160.942 170.06 161.019 170.367C160.286 167.997 159.619 165.576 159.034 163.108C158.967 162.815 158.9 162.523 158.834 162.231C165.82 157.103 171.432 150.328 175.169 142.509Z" fill="url(#paint0_linear)"/>
<path d="M413.711 41.839C406.739 41.6286 399.022 42.5162 394.277 47.6261C390.644 51.5355 389.485 57.1893 386.16 61.3706C381.445 67.3066 373.201 69.3383 367.978 74.833C365.724 77.2612 364.141 80.2348 363.385 83.4608C362.629 86.6868 362.727 90.054 363.668 93.2308C364.392 95.5703 365.572 97.7508 366.341 100.075C369.568 109.823 365.356 120.202 362.75 130.119C362.459 130.932 362.408 131.812 362.601 132.653C363.001 133.864 364.279 134.5 365.331 135.219C368.783 137.573 370.548 141.832 370.861 145.993C371.174 150.153 370.235 154.309 369.286 158.377C366.767 169.151 363.586 180.751 354.839 187.539C351.145 190.438 346.209 192.788 345.245 197.405C344.116 202.812 349.277 207.409 354.228 209.857C368.763 217.039 385.637 217.142 401.536 220.343C415.537 223.165 429.503 228.511 443.673 226.685C449.988 225.874 456.027 223.652 462.004 221.451L499.22 207.738C500.272 207.416 501.261 206.919 502.145 206.265C504.387 204.398 504.464 200.847 503.243 198.195C502.022 195.543 499.805 193.511 497.856 191.336C493.608 186.58 490.375 179.864 492.694 173.923C494.234 170.003 497.902 167.176 499.2 163.149C501.611 155.71 495.096 148.742 491.145 142.001C487.49 135.753 485.833 128.537 486.394 121.32C487.015 113.563 490.191 106.144 490.422 98.3664C490.637 91.1222 488.293 84.073 485.974 77.2033C484.06 71.529 482.11 65.788 478.873 60.7447C472.752 51.2175 461.881 45.2302 450.696 44.2349C445.417 43.768 440.261 45.4816 435.074 44.8146C427.866 43.9271 421.053 42.0596 413.711 41.839Z" fill="#F7D6C8"/>
<path d="M424.121 245.421C424.121 245.421 381.928 218.968 398.335 188.473C402.132 181.423 403.809 174.754 404.153 168.664C404.244 167.059 404.244 165.451 404.153 163.846C404.153 163.769 404.153 163.693 404.153 163.616C404.098 162.788 404.025 161.974 403.932 161.173C401.978 145.074 391.635 134.582 391.635 134.582C391.635 134.582 461.619 114.158 449.901 132.571C444.463 141.118 446.09 149.502 449.732 158.177C450.117 159.09 450.527 160.014 450.953 160.932C455.16 170.08 460.999 179.556 462.63 189.832C465.975 210.929 424.121 245.421 424.121 245.421Z" fill="#EFB7B9"/>
<path opacity="0.1" d="M449.901 132.571C444.463 141.119 446.09 149.502 449.732 158.177C442.981 162.53 435.231 165.092 427.215 165.619C419.199 166.147 411.181 164.624 403.917 161.194C401.978 145.074 391.635 134.582 391.635 134.582C391.635 134.582 461.625 114.153 449.901 132.571Z" fill="black"/>
<path d="M424.115 164.719C450.192 164.719 471.331 143.58 471.331 117.503C471.331 91.4265 450.192 70.2874 424.115 70.2874C398.039 70.2874 376.899 91.4265 376.899 117.503C376.899 143.58 398.039 164.719 424.115 164.719Z" fill="#EFB7B9"/>
<path opacity="0.1" d="M404.152 163.867C404.152 163.79 404.152 163.713 404.152 163.636L404.209 163.544C404.178 163.657 404.157 163.765 404.152 163.867Z" fill="black"/>
<path opacity="0.1" d="M424.12 245.421C424.12 245.421 381.927 218.968 398.335 188.473C402.131 181.424 403.809 174.754 404.153 168.664C405.112 176.196 410.309 185.559 419.77 198.518C423.874 204.162 425.639 212.053 426.198 219.938L427.137 220.62L431.755 217.83C432.268 209.108 434.032 200.294 438.209 194.045C449.183 177.627 451.789 169.418 450.978 160.912C455.185 170.06 461.024 179.536 462.655 189.812C465.975 210.929 424.12 245.421 424.12 245.421Z" fill="black"/>
<path d="M491.76 181.88C466.621 180.054 450.717 160.538 450.717 160.538C452.056 169.68 449.88 177.863 438.157 195.425C434.007 201.653 432.247 210.452 431.734 219.194L427.116 221.985L426.178 221.303C425.618 213.422 423.859 205.522 419.749 199.883C408.031 183.809 402.819 173.261 404.178 164.888C404.178 164.888 391.285 185.815 366.172 187.493C341.058 189.171 319.962 206.917 317.945 239.398L325.98 250.449H405.23L405.199 250.618H531.922L539.987 238.546C537.97 203.085 516.9 183.707 491.76 181.88Z" fill="#00CDAC"/>
<path opacity="0.05" d="M491.76 181.88C466.621 180.054 450.717 160.538 450.717 160.538C452.056 169.68 449.88 177.863 438.157 195.425C434.007 201.653 432.247 210.452 431.734 219.194L427.116 221.985L426.178 221.303C425.618 213.422 423.859 205.522 419.749 199.883C408.031 183.809 402.819 173.261 404.178 164.888C404.178 164.888 391.285 185.815 366.172 187.493C341.058 189.171 319.962 206.917 317.945 239.398L325.98 250.449H405.23L405.199 250.618H531.922L539.987 238.546C537.97 203.085 516.9 183.707 491.76 181.88Z" fill="black"/>
<path opacity="0.1" d="M456.037 94.6827C453.985 99.7619 450.342 104.051 446.361 107.817C440.861 113.024 433.945 117.611 426.383 117.257C430.505 113.416 433.49 108.513 435.007 103.086C430.236 105.867 426.629 110.269 422.073 113.404C417.517 116.539 411.078 118.155 406.625 114.881C414.714 110.815 421.433 104.467 425.952 96.6221C415.137 99.4284 409.585 111.608 399.843 117.077C395.277 119.642 389.936 120.607 384.703 120.494C380.983 120.417 376.838 119.55 374.765 116.462C373.554 114.666 373.272 112.409 373.226 110.238C373 100.398 377.007 90.7426 383.179 83.0828C389.351 75.423 397.544 69.5999 406.307 65.0799C409.426 63.469 412.679 62.0017 416.152 61.4886C420.472 60.8627 424.874 61.7811 429.112 62.7558C434.622 64.0179 440.163 65.4032 445.237 67.8863C456.068 73.2477 460.798 82.9648 456.037 94.6827Z" fill="black"/>
<path d="M456.037 94.0106C453.985 99.0898 450.342 103.379 446.361 107.145C440.861 112.352 433.945 116.939 426.383 116.585C430.505 112.744 433.49 107.841 435.007 102.414C430.236 105.195 426.629 109.597 422.073 112.732C417.517 115.866 411.078 117.483 406.625 114.209C414.714 110.143 421.433 103.795 425.952 95.9499C415.137 98.7563 409.585 110.936 399.843 116.405C395.277 118.97 389.936 119.935 384.703 119.822C380.983 119.745 376.838 118.878 374.765 115.789C373.554 113.994 373.272 111.736 373.226 109.566C373 99.726 377.007 90.0704 383.179 82.4106C389.351 74.7508 397.544 68.9278 406.307 64.4078C409.426 62.7969 412.679 61.3295 416.152 60.8165C420.472 60.1906 424.874 61.1089 429.112 62.0837C434.622 63.3458 440.163 64.731 445.237 67.2142C456.068 72.5653 460.798 82.2926 456.037 94.0106Z" fill="#F7D6C8"/>
<path d="M130.478 156.551C163.582 156.551 190.418 129.715 190.418 96.6118C190.418 63.5083 163.582 36.6726 130.478 36.6726C97.3748 36.6726 70.5391 63.5083 70.5391 96.6118C70.5391 129.715 97.3748 156.551 130.478 156.551Z" fill="#C3705A"/>
<path d="M184.225 211.97C184.225 211.97 129.329 226.033 127.969 227.362C126.61 228.691 81.759 231.045 94.816 203.587C99.613 193.506 101.609 179.813 102.214 166.52C102.24 165.955 102.265 165.396 102.286 164.837C103.112 142.555 100.177 121.879 100.177 121.879C100.177 121.879 163.795 96.74 159.111 134.942C157.941 144.443 158.911 153.991 161.035 162.969C161.743 165.965 162.574 168.895 163.498 171.737C170.926 194.64 184.225 211.97 184.225 211.97Z" fill="#ECB4B6"/>
<path opacity="0.1" d="M161.029 162.979C152.592 169.235 142.445 172.766 131.947 173.1C121.449 173.434 111.098 170.554 102.28 164.847C103.107 142.565 100.172 121.89 100.172 121.89C100.172 121.89 163.79 96.7503 159.106 134.952C157.941 144.459 158.911 154.006 161.029 162.979Z" fill="black"/>
<path d="M130.309 172.117C158.788 172.117 181.875 149.03 181.875 120.551C181.875 92.0714 158.788 68.9844 130.309 68.9844C101.829 68.9844 78.7422 92.0714 78.7422 120.551C78.7422 149.03 101.829 172.117 130.309 172.117Z" fill="#ECB4B6"/>
<path opacity="0.1" d="M184.225 211.97C184.225 211.97 129.329 226.033 127.969 227.362C126.61 228.691 81.759 231.045 94.816 203.587C99.613 193.506 101.609 179.813 102.214 166.52C102.727 173.466 106.698 190.289 107.206 195.886C107.238 196.214 107.304 196.537 107.401 196.851C108.145 199.339 110.797 202.207 113.994 204.926L114.184 205.085C118.159 208.42 123.093 210.404 128.271 210.75C133.448 211.096 138.602 209.786 142.986 207.009C147.549 204.134 151.929 200.978 156.099 197.559C162.071 192.628 163.934 185.985 164.165 180.115C164.26 177.298 164.036 174.479 163.498 171.712C170.926 194.64 184.225 211.97 184.225 211.97Z" fill="black"/>
<path d="M253.543 250.818H29.5059C29.5059 250.818 34.1951 228.049 34.8621 223.36C35.2263 220.795 39.4795 211.56 46.3697 203.541C52.1056 196.871 59.673 190.997 68.3486 190.54C84.5866 189.689 102.169 166.766 102.169 166.766C102.559 173.435 106.673 190.853 107.191 196.569C107.224 196.896 107.289 197.219 107.386 197.533C108.13 200.022 110.783 202.889 113.979 205.609L114.169 205.768C118.144 209.104 123.077 211.089 128.255 211.436C133.433 211.783 138.587 210.473 142.971 207.697C147.534 204.821 151.913 201.665 156.085 198.246C162.057 193.316 163.919 186.672 164.15 180.803C164.267 176.908 163.795 173.018 162.749 169.264C162.457 168.197 162.236 167.571 162.205 167.515L162.919 167.818C162.919 167.818 193.255 189.879 221.047 198.898C224.304 199.958 227.377 201.516 230.158 203.515C232.411 205.144 234.485 207.006 236.346 209.072C240.108 213.326 243.22 218.113 245.581 223.278C252.024 236.935 253.543 250.818 253.543 250.818Z" fill="#00CDAC"/>
<path opacity="0.05" d="M253.543 250.818H29.5059C29.5059 250.818 34.1951 228.049 34.8621 223.36C35.2263 220.795 39.4795 211.56 46.3697 203.541C52.1056 196.871 59.673 190.997 68.3486 190.54C84.5866 189.689 102.169 166.766 102.169 166.766C102.559 173.435 106.673 190.853 107.191 196.569C107.224 196.896 107.289 197.219 107.386 197.533C108.13 200.022 110.783 202.889 113.979 205.609L114.169 205.768C118.144 209.104 123.077 211.089 128.255 211.436C133.433 211.783 138.587 210.473 142.971 207.697C147.534 204.821 151.913 201.665 156.085 198.246C162.057 193.316 163.919 186.672 164.15 180.803C164.267 176.908 163.795 173.018 162.749 169.264C162.457 168.197 162.236 167.571 162.205 167.515L162.919 167.818C162.919 167.818 193.255 189.879 221.047 198.898C224.304 199.958 227.377 201.516 230.158 203.515C232.411 205.144 234.485 207.006 236.346 209.072C240.108 213.326 243.22 218.113 245.581 223.278C252.024 236.935 253.543 250.818 253.543 250.818Z" fill="black"/>
<path opacity="0.1" d="M155.099 103.235C156.433 108.366 158.177 114.066 162.759 116.739C163.373 117.033 163.938 117.419 164.437 117.883C165.565 119.109 165.221 121.023 165.052 122.685C164.467 128.39 166.92 134.172 170.942 138.261C174.964 142.35 180.408 144.848 186.026 145.998C187.4 146.28 188.945 146.459 190.13 145.685C190.931 145.076 191.52 144.231 191.813 143.268C193.377 139.107 192.716 134.434 191.407 130.186C190.099 125.938 188.17 121.884 187.18 117.549C184.825 107.263 187.944 96.6323 189.35 86.1713C189.817 82.6928 190.089 79.1066 189.191 75.7154C187.893 70.8004 184.312 66.8602 180.854 63.1304C178.992 61.1244 177.088 59.0824 174.697 57.769C167.648 53.9161 158.572 57.3381 151.046 54.5317C148.034 53.4081 145.474 51.356 142.606 49.9143C136.517 46.836 129.298 46.6667 122.623 48.0673C115.948 49.4679 109.694 52.3461 103.502 55.1987L98.7665 57.3432C92.0969 60.4215 84.9502 63.8999 81.3589 70.3387C77.5367 77.193 78.5987 85.9661 74.7765 92.8204C73.617 94.8726 72.0009 96.8427 71.6982 99.2027C71.493 100.906 72.0163 102.609 72.5037 104.256C73.694 108.263 74.7303 112.383 74.638 116.569C74.5456 120.756 73.2117 125.045 70.2463 127.99C68.9944 129.231 67.3219 130.822 68.0915 132.407C68.344 132.85 68.6951 133.229 69.1176 133.515C71.553 135.365 74.4159 136.57 77.441 137.018C80.4661 137.466 83.5554 137.144 86.4226 136.08C88.6698 135.224 90.7938 133.849 92.0662 131.822C92.912 130.338 93.5245 128.732 93.8823 127.061C95.5036 121.023 97.1351 114.881 97.0068 108.627C96.935 105.036 96.2783 101.414 96.8016 97.8534C97.3249 94.2928 99.4027 90.6245 102.866 89.6446C105.431 88.911 108.176 89.7985 110.854 89.7729C114.712 89.7421 119.442 85.4633 123.018 86.7203C126.097 87.8079 128.534 93.6977 131.078 95.9551C137.532 101.717 146.541 104.728 155.099 103.235Z" fill="black"/>
<path d="M155.099 102.563C156.433 107.694 158.177 113.394 162.759 116.067C163.364 116.355 163.922 116.732 164.416 117.185C165.545 118.411 165.201 120.325 165.032 121.987C164.447 127.692 166.899 133.474 170.921 137.563C174.944 141.652 180.387 144.151 186.005 145.3C187.38 145.582 188.924 145.762 190.109 144.987C190.91 144.378 191.499 143.533 191.792 142.571C193.357 138.41 192.695 133.736 191.387 129.488C190.079 125.24 188.149 121.187 187.159 116.851C184.804 106.565 187.924 95.9346 189.329 85.4735C189.796 81.9951 190.068 78.4089 189.17 75.0177C187.872 70.1027 184.291 66.1625 180.833 62.4326C178.971 60.4266 177.068 58.3847 174.677 57.0713C167.628 53.2183 158.552 56.6403 151.025 53.834C148.014 52.7104 145.454 50.6582 142.586 49.2165C136.496 46.1383 129.277 45.969 122.603 47.3696C115.928 48.7702 109.674 51.6484 103.481 54.5009L98.8076 56.6557C92.138 59.734 84.9912 63.2125 81.3999 69.6512C77.5777 76.5055 78.6397 85.2786 74.8175 92.1329C73.658 94.1851 72.0419 96.1552 71.7392 98.5152C71.534 100.219 72.0573 101.922 72.5447 103.569C73.735 107.576 74.7713 111.695 74.679 115.882C74.5866 120.068 73.2527 124.357 70.2873 127.302C69.0355 128.544 67.3629 130.134 68.1325 131.72C68.385 132.163 68.7361 132.542 69.1586 132.828C71.594 134.677 74.4569 135.882 77.482 136.331C80.5071 136.779 83.5964 136.456 86.4637 135.393C88.7108 134.536 90.8348 133.161 92.1072 131.135C92.953 129.65 93.5655 128.044 93.9234 126.374C95.5446 120.335 97.1761 114.194 97.0478 107.94C96.976 104.349 96.3193 100.726 96.8426 97.1659C97.3659 93.6053 99.4437 89.9371 102.907 88.9571C105.472 88.2235 108.217 89.1111 110.895 89.0854C114.753 89.0546 119.483 84.7758 123.059 86.0328C126.138 87.1204 128.575 93.0102 131.119 95.2676C137.532 101.05 146.541 104.061 155.099 102.563Z" fill="#C3705A"/>
<path d="M326.877 124.465H209.338V225.258H326.877V124.465Z" fill="#463A3E"/>
<path opacity="0.05" d="M326.877 124.465H209.338V225.258H326.877V124.465Z" fill="black"/>
<path d="M310.024 269.462H209.467C210.765 262.141 214.561 254.117 221.959 245.467C227.801 238.667 232.579 231.022 236.13 222.79C237.084 220.591 237.939 218.387 238.695 216.177C240.917 209.617 242.429 202.836 243.205 195.953C243.205 195.758 243.251 195.563 243.271 195.368C243.79 190.612 243.999 185.827 243.897 181.044C243.897 180.7 243.897 180.367 243.897 180.018C243.538 168.281 241.597 156.646 238.126 145.428L237.997 145.028C236.905 141.585 236.104 139.651 236.104 139.651C236.104 139.651 238.1 138.569 241.394 136.973L241.671 136.84C253.784 131.022 282.458 118.883 295.099 127.533L295.305 127.672C299.727 130.822 302.108 136.604 300.989 146.234C300.989 146.27 300.989 146.311 300.989 146.347C300.989 146.526 300.948 146.701 300.933 146.86C300.256 153.497 299.935 160.166 299.973 166.838C299.973 167.171 299.973 167.505 299.973 167.864C299.973 169.427 299.991 171.01 300.025 172.615C300.025 172.83 300.025 173.045 300.025 173.261C300.127 178.443 300.358 183.794 300.681 189.222C301.128 196.748 301.764 204.413 302.498 211.934C302.811 215.151 303.149 218.348 303.524 221.492C303.565 221.862 303.606 222.242 303.647 222.606C304.078 226.438 304.524 230.194 304.981 233.836L305.012 234.072C306.756 248.54 308.685 261.172 310.024 269.462Z" fill="#C17174"/>
<path opacity="0.1" d="M300.948 146.254C300.948 146.29 300.948 146.331 300.948 146.367C300.225 153.183 299.882 160.035 299.922 166.889C299.922 167.222 299.922 167.556 299.922 167.915C293.17 175.752 284.108 181.248 274.038 183.615C263.969 185.982 253.408 185.098 243.871 181.09C243.871 180.746 243.871 180.413 243.871 180.064C243.51 168.186 241.525 156.414 237.971 145.074C236.878 141.632 236.078 139.697 236.078 139.697C236.078 139.697 238.074 138.615 241.368 137.019C253.363 131.222 282.632 118.704 295.263 127.692C299.681 130.842 302.061 136.624 300.948 146.254Z" fill="black"/>
<path d="M262.86 183.871C289.868 183.871 311.763 161.976 311.763 134.967C311.763 107.958 289.868 86.0635 262.86 86.0635C235.851 86.0635 213.956 107.958 213.956 134.967C213.956 161.976 235.851 183.871 262.86 183.871Z" fill="#C17174"/>
<path opacity="0.1" d="M265.45 269.129H161.122C161.122 269.129 165.811 246.36 166.478 241.671C166.843 239.105 171.096 229.871 177.986 221.852C186.836 214.792 197.797 210.903 209.118 210.806C229.07 210.508 234.878 217.378 236.453 222.457C237.003 224.16 237.144 225.969 236.863 227.736L240.639 233.205L265.45 269.129Z" fill="black"/>
<path d="M265.117 269.462H160.789C160.789 269.462 165.478 246.693 166.145 242.004C166.51 239.439 170.763 230.204 177.653 222.185C186.503 215.125 197.464 211.236 208.785 211.139C228.737 210.842 234.545 217.711 236.12 222.791C236.67 224.493 236.811 226.302 236.53 228.07L240.306 233.539L265.117 269.462Z" fill="#00CDAC"/>
<path opacity="0.1" d="M379.003 269.129H269.693C274.906 258.037 288.568 228.465 289.328 221.626C289.62 218.979 292.442 216.495 296.177 214.387C297.356 213.711 298.571 213.098 299.814 212.55L300.04 212.447C300.724 212.146 301.417 211.868 302.118 211.611C311.573 208.15 321.962 208.232 331.362 211.842C340.335 215.254 351.883 219.851 360.872 224.155L360.944 224.191C363.253 225.299 365.402 226.382 367.295 227.423C371.082 229.501 373.847 231.399 374.909 232.918C375.396 233.616 375.935 236.761 376.525 241.64C377.31 248.238 378.167 258.026 379.003 269.129Z" fill="black"/>
<path d="M379.336 269.462H270.026C275.239 258.37 288.901 228.798 289.661 221.959C289.953 219.312 292.775 216.829 296.51 214.72C297.689 214.045 298.904 213.432 300.147 212.884L300.373 212.781C301.057 212.48 301.75 212.201 302.451 211.945C311.906 208.483 322.295 208.565 331.695 212.176C340.668 215.587 352.216 220.184 361.205 224.489L361.277 224.525C363.586 225.633 365.735 226.715 367.628 227.757C371.415 229.835 374.18 231.733 375.242 233.251C375.729 233.949 376.268 237.094 376.858 241.973C377.648 248.571 378.5 258.365 379.336 269.462Z" fill="#00CDAC"/>
<path opacity="0.1" d="M361.744 215.823C361.744 217.4 361.701 218.979 361.615 220.559C361.568 221.328 361.509 222.098 361.441 222.868C361.395 223.422 361.338 223.971 361.282 224.52L361.21 225.156C360.374 232.615 358.83 240.034 358.645 247.53C358.645 247.884 358.645 248.238 358.645 248.592C358.609 255.631 359.748 262.562 361.292 269.462H298.341C298.239 268.185 298.187 266.897 298.203 265.63C298.203 264.486 298.275 263.342 298.393 262.193C299.362 252.747 304.19 243.908 304.919 234.524L304.949 234.093C304.996 233.39 305.021 232.682 305.011 231.974C305.011 231.913 305.011 231.851 305.011 231.784C304.931 228.682 304.454 225.602 303.59 222.621C303.549 222.473 303.508 222.324 303.467 222.175C302.587 219.218 301.56 216.307 300.388 213.453L300.163 212.884C298.454 208.615 296.659 204.382 295.443 200.14C294.476 196.98 293.977 193.696 293.96 190.392C293.96 189.802 293.996 189.212 294.042 188.622C294.083 188.139 294.14 187.657 294.211 187.17C294.323 186.408 294.474 185.653 294.663 184.907C295.689 180.864 297.88 177.073 299.978 173.317C302.312 169.136 304.539 165.001 304.939 160.604C304.99 160.048 305.009 159.49 304.996 158.932C304.98 158.213 304.911 157.496 304.79 156.787C304.252 153.668 302.646 150.861 301.327 147.983C301.194 147.691 301.061 147.398 300.932 147.101C300.932 147.055 300.891 147.008 300.876 146.962C298.311 141.037 296.823 134.716 295.258 128.426C295.191 128.154 295.125 127.882 295.053 127.615C294.668 126.076 294.273 124.537 293.852 122.998C291.554 114.604 288.281 106.124 282.052 100.065C275.824 94.0056 265.891 90.9376 258.093 94.7957C251.346 98.1562 247.693 105.677 246.047 113.024C244.4 120.371 244.266 128.041 242.127 135.265C241.973 135.792 241.802 136.317 241.614 136.84C241.521 137.107 241.429 137.353 241.337 137.645C240.418 140.262 239.285 142.853 238.064 145.428L237.935 145.7C234.036 153.996 229.506 162.148 229.362 170.485V170.593C229.362 170.819 229.362 171.04 229.362 171.265C229.389 173.247 229.689 175.215 230.255 177.114C231.281 180.531 233.138 183.512 235.303 186.349C235.731 186.906 236.169 187.459 236.617 188.006C238.772 190.653 241.111 193.219 243.158 195.948L243.225 196.035C244.781 198.051 246.095 200.243 247.139 202.566C248.377 205.476 249.023 208.603 249.041 211.765C249.059 214.927 248.447 218.061 247.242 220.985C246.661 222.336 245.994 223.648 245.246 224.915C243.928 227.193 242.476 229.409 241.332 231.779C240.947 232.574 240.603 233.385 240.306 234.206C237.74 240.814 237.186 248.125 235.093 254.943C233.472 260.178 230.949 265.09 227.638 269.457H160.942C161.717 265.666 165.56 246.883 166.165 242.666C166.529 240.101 170.783 230.866 177.673 222.847C177.093 223.304 176.534 223.765 175.995 224.227C171.65 227.93 167.885 232.264 164.826 237.084C164.975 236.622 165.129 236.155 165.283 235.694C166.222 232.892 167.237 230.117 168.269 227.377C171.255 219.487 174.579 211.437 180.53 205.455C183.891 202.079 187.98 199.478 191.181 195.953C196.825 189.75 199.159 181.157 199.093 172.733C199.093 171.86 199.057 170.993 199 170.126C198.39 160.892 195.234 152.052 191.818 143.448C189.981 138.83 188.031 133.977 188.118 129.083C188.124 128.396 188.174 127.711 188.267 127.03C189.678 116.887 199.939 110.813 206.101 102.63C215.264 90.4553 215.931 72.3602 227.951 63.0125C237.186 55.8298 250.012 56.271 261.674 57.0509C272.52 57.7794 282.309 59.1903 293.072 60.6986C303.836 62.207 314.759 65.039 323.393 71.6727C328.97 75.9515 333.321 81.6207 337.184 87.495C342.356 95.3652 346.876 104.056 347.496 113.45C347.543 114.122 347.568 114.789 347.568 115.451C347.676 126.43 342.91 137.071 342.279 148.096C342.253 148.609 342.232 149.122 342.227 149.635C342.224 149.663 342.224 149.69 342.227 149.717C342.114 159.275 345.783 169.311 350.775 177.422C357.867 188.982 361.66 202.262 361.744 215.823Z" fill="black"/>
<path d="M361.744 215.823C361.744 217.178 361.693 218.537 361.616 219.887C361.568 220.656 361.51 221.426 361.442 222.195C361.373 222.965 361.296 223.728 361.211 224.484C360.374 231.943 358.83 239.362 358.645 246.858C358.645 247.432 358.645 248.012 358.645 248.587C358.681 255.62 359.872 262.557 361.442 269.457H298.398C298.28 268.18 298.209 266.892 298.198 265.625C298.185 264.254 298.248 262.884 298.388 261.52C299.358 252.075 304.186 243.235 304.914 233.852C304.965 233.164 305.001 232.477 305.006 231.8C305.006 231.641 305.006 231.476 305.006 231.317C304.941 227.997 304.425 224.7 303.472 221.518C302.593 218.561 301.565 215.65 300.394 212.796C298.619 208.338 296.716 203.91 295.443 199.457C294.547 196.505 294.048 193.445 293.961 190.361C293.946 189.546 293.974 188.731 294.043 187.919C294.084 187.437 294.14 186.954 294.212 186.467C294.324 185.706 294.475 184.95 294.663 184.204C295.69 180.162 297.88 176.37 299.979 172.615C302.318 168.428 304.555 164.283 304.95 159.881C304.981 159.547 304.996 159.209 305.006 158.855C305.031 157.911 304.962 156.968 304.801 156.038C304.263 152.919 302.657 150.112 301.338 147.234C301.205 146.942 301.071 146.649 300.943 146.352C298.342 140.39 296.839 134.039 295.269 127.677C294.817 125.861 294.356 124.044 293.868 122.244C291.57 113.85 288.297 105.37 282.068 99.3105C275.84 93.2514 265.923 90.2449 258.129 94.1236C251.383 97.484 247.73 105.005 246.083 112.352C244.436 119.699 244.303 127.369 242.163 134.593C241.927 135.388 241.65 136.183 241.389 136.973C240.434 139.677 239.244 142.36 237.992 145.028C233.985 153.54 229.322 161.912 229.419 170.485V170.593C229.446 172.575 229.746 174.543 230.312 176.442C231.338 179.859 233.195 182.84 235.36 185.677C235.788 186.234 236.226 186.787 236.674 187.334C238.854 190.012 241.219 192.603 243.282 195.363C244.838 197.379 246.152 199.571 247.196 201.894C248.434 204.804 249.081 207.931 249.098 211.093C249.116 214.255 248.504 217.389 247.299 220.313C246.718 221.664 246.051 222.976 245.303 224.242C243.985 226.52 242.533 228.737 241.389 231.107C241.004 231.902 240.66 232.713 240.363 233.534C237.797 240.142 237.243 247.453 235.15 254.271C233.443 259.775 230.743 264.921 227.182 269.452H160.789C160.789 269.452 165.478 246.683 166.145 241.994C166.479 239.649 170.075 231.733 175.975 224.227C176.488 223.54 177.073 222.852 177.653 222.175C172.828 225.988 168.647 230.551 165.268 235.689L164.811 236.407C165.878 233.128 167.053 229.891 168.259 226.7C171.245 218.809 174.569 210.76 180.521 204.777C183.881 201.402 187.97 198.8 191.172 195.276C196.651 189.237 199.021 180.911 199.083 172.702C199.083 171.604 199.083 170.511 198.991 169.423C198.38 160.189 195.225 151.349 191.808 142.745C190.058 138.323 188.217 133.715 188.109 129.026C188.085 128.122 188.135 127.218 188.258 126.322C189.674 116.236 199.935 110.187 206.096 101.978C215.259 89.8037 215.926 71.7086 227.947 62.3608C237.182 55.1782 250.008 55.6194 261.669 56.3992C272.515 57.1278 282.304 58.5386 293.068 60.047C303.832 61.5554 314.77 64.3822 323.394 70.9954C328.971 75.2999 333.322 80.9434 337.185 86.8229C342.356 94.6931 346.876 103.384 347.497 112.778C347.559 113.671 347.583 114.562 347.569 115.451C347.482 126.189 342.895 136.624 342.279 147.429C342.238 148.158 342.218 148.881 342.228 149.615C342.225 149.642 342.225 149.67 342.228 149.697C342.29 159.055 345.901 168.813 350.775 176.719C357.992 188.482 361.79 202.023 361.744 215.823Z" fill="#463A3E"/>
</g>
<defs>
<linearGradient id="paint0_linear" x1="284.751" y1="271.325" x2="284.751" y2="34.8103" gradientUnits="userSpaceOnUse">
<stop stop-color="#808080" stop-opacity="0.25"/>
<stop offset="0.54" stop-color="#808080" stop-opacity="0.12"/>
<stop offset="1" stop-color="#808080" stop-opacity="0.1"/>
</linearGradient>
<clipPath id="clip0">
<rect width="570" height="302.456" fill="white"/>
</clipPath>
</defs>
</svg>
