<svg width="570" height="457" viewBox="0 0 570 457" fill="none" xmlns="http://www.w3.org/2000/svg">
<g clip-path="url(#clip0)">
<path d="M152.561 347.777L195.238 280.663L99.6601 219.885L50.3008 297.507L129.356 347.777H152.561Z" fill="#F0F0F0"/>
<path d="M471.852 98.1758C471.563 98.2636 471.252 98.2486 470.973 98.1333C470.694 98.0181 470.464 97.8096 470.321 97.5436C469.091 95.6055 471.356 93.1065 470.866 90.864C470.473 89.0675 468.431 88.0012 468.014 86.2102C467.608 84.4699 468.858 82.5084 468.013 80.9337C467.352 79.7001 465.699 79.3754 464.315 79.5916C462.932 79.8077 461.619 80.4157 460.222 80.5009C458.36 80.6144 456.585 79.7947 454.765 79.3886C452.944 78.9825 450.723 79.1415 449.652 80.6688C448.277 82.6299 449.672 85.3606 449.193 87.7075C448.813 89.5711 447.252 91.1142 447.219 93.0159C447.207 93.6918 448.984 93.1473 448.89 93.8167C448.795 94.4861 449.635 93.8967 448.964 93.8172C448.689 93.75 448.444 93.5974 448.262 93.3814C448.08 93.1654 447.972 92.8971 447.953 92.6155C447.873 92.058 446.826 91.8721 446.838 91.309C446.866 89.9894 444.48 90.8792 444.087 89.619C443.184 86.6814 443.369 83.5165 444.61 80.7044C445.249 79.5557 445.759 78.3398 446.131 77.079C446.482 75.3292 445.93 73.4508 446.509 71.7625C447.288 69.4873 449.866 68.3274 452.259 68.0918C454.652 67.8563 457.084 68.2779 459.464 67.9306C461.596 67.6194 463.66 66.6955 465.81 66.8293C468.39 66.99 470.635 68.6523 472.424 70.5189C474.212 72.3854 475.729 74.5322 477.761 76.1313C478.383 76.5592 478.956 77.0531 479.472 77.6044C480.506 78.8651 480.611 80.6611 480.324 82.2664C480.036 83.8717 479.41 85.4029 479.145 87.0122C478.897 88.5246 478.973 90.0697 478.866 91.5986C478.841 93.1407 478.374 94.6432 477.521 95.9279C477.152 96.4284 476.674 96.8382 476.123 97.126C475.572 97.4139 474.963 97.5722 474.342 97.589C473.911 97.5989 473.548 97.2121 473.113 97.3129C472.57 97.439 472.334 97.9548 471.852 98.1758Z" fill="#2F2E41"/>
<path d="M490.266 209.284L488.67 219.087L485.479 214.756L487.302 208.144L490.266 209.284Z" fill="#A0616A"/>
<path d="M488.214 135.193L490.727 141.815C490.727 141.815 493.229 175.544 493.229 178.052C493.229 180.56 491.405 212.704 490.721 214.071C490.721 214.071 487.758 209.74 483.882 210.424C480.007 211.108 481.603 199.025 481.603 199.025L477.955 169.161L478.639 154.115L488.214 135.193Z" fill="#575A89"/>
<path opacity="0.1" d="M488.214 135.193L490.727 141.815C490.727 141.815 493.229 175.544 493.229 178.052C493.229 180.56 491.405 212.704 490.721 214.071C490.721 214.071 487.758 209.74 483.882 210.424C480.007 211.108 481.603 199.025 481.603 199.025L477.955 169.161L478.639 154.115L488.214 135.193Z" fill="black"/>
<path d="M472.712 98.7179C472.712 98.7179 465.189 117.867 469.52 121.515C473.852 125.163 445.355 115.36 445.355 115.36L446.039 112.852C446.039 112.852 455.386 109.205 450.827 98.7179C446.267 88.2312 472.712 98.7179 472.712 98.7179Z" fill="#A0616A"/>
<path opacity="0.1" d="M472.712 98.7179C472.712 98.7179 465.189 117.867 469.52 121.515C473.852 125.163 445.355 115.36 445.355 115.36L446.039 112.852C446.039 112.852 455.386 109.205 450.827 98.7179C446.267 88.2312 472.712 98.7179 472.712 98.7179Z" fill="black"/>
<path d="M484.567 354.502C484.567 354.502 487.759 353.59 489.582 355.869C491.406 358.149 498.245 363.848 498.245 363.848C498.245 363.848 511.468 362.481 513.291 369.092C515.115 375.703 492.546 375.703 487.075 374.107C481.603 372.511 480.464 374.107 480.464 374.107C480.464 374.107 463.594 375.475 463.594 372.739C463.594 370.004 465.19 360.657 465.19 360.657L484.567 354.502Z" fill="#575A89"/>
<path d="M430.993 369.776L433.957 378.895C433.957 378.895 442.848 391.205 437.832 393.713C432.817 396.22 415.035 398.728 415.035 392.117V379.578C415.035 379.578 416.859 370.688 418.683 369.776C420.506 368.864 430.993 369.776 430.993 369.776Z" fill="#575A89"/>
<path d="M481.338 205.948C481.338 205.948 490.95 214.299 490.722 215.439C490.494 216.579 485.934 289.758 485.934 289.758L483.427 337.176C483.427 337.176 486.618 348.346 485.023 350.854C483.427 353.362 487.302 354.045 487.302 354.045C487.302 354.045 470.888 368.864 464.049 362.48L457.666 279.727L440.112 339.911C440.112 339.911 437.149 371.827 433.729 371.827C430.309 371.827 416.403 372.511 416.631 370.687C416.859 368.864 415.947 354.957 417.543 346.75C419.139 338.543 429.854 273.572 429.854 273.572C429.854 273.572 430.775 217.873 428.376 212.666C425.978 207.46 429.626 201.989 429.626 201.989L445.584 195.833L464.733 198.113L481.338 205.948Z" fill="#2F2E41"/>
<path d="M461.998 106.469C470.811 106.469 477.956 99.3243 477.956 90.511C477.956 81.6976 470.811 74.553 461.998 74.553C453.185 74.553 446.04 81.6976 446.04 90.511C446.04 99.3243 453.185 106.469 461.998 106.469Z" fill="#A0616A"/>
<path d="M423.242 124.935C424.03 122.704 425.359 120.704 427.11 119.113C428.86 117.521 430.978 116.389 433.273 115.816C437.871 114.659 442.369 113.134 446.723 111.256C446.723 111.256 462.909 119.007 466.101 119.007C469.292 119.007 469.292 116.956 469.292 116.956C469.292 116.956 477.499 125.619 481.831 126.53C486.162 127.442 492.545 138.157 490.266 144.084C488.717 147.884 486.475 151.363 483.655 154.343C483.655 154.343 484.566 186.259 481.603 192.186C481.603 192.186 488.898 206.092 482.059 207.004C475.22 207.916 449.003 204.724 444.443 207.916C439.884 211.108 431.449 207.232 430.309 211.564C429.169 215.895 426.662 216.807 426.662 216.807C426.662 216.807 422.786 210.652 425.066 207.004C427.346 203.357 423.242 124.935 423.242 124.935Z" fill="#575A89"/>
<path d="M440.112 210.652L443.76 212.932C443.76 212.932 439.884 226.382 438.289 226.838C436.693 227.294 432.937 215.337 432.937 215.337L440.112 210.652Z" fill="#A0616A"/>
<path d="M474.587 96.5799C474.298 96.6677 473.988 96.6527 473.709 96.5374C473.43 96.4221 473.199 96.2137 473.057 95.9477C471.827 94.0096 474.091 91.5106 473.601 89.2681C473.208 87.4716 471.167 86.4053 470.749 84.6143C470.344 82.874 471.593 80.9124 470.749 79.3378C470.087 78.1041 468.434 77.7795 467.051 77.9956C465.668 78.2117 464.355 78.8198 462.957 78.905C461.095 79.0185 459.321 78.1988 457.5 77.7927C455.679 77.3866 453.458 77.5456 452.387 79.0729C451.012 81.034 452.407 83.7647 451.928 86.1116C451.548 87.9752 447.216 89.2832 446.823 88.0231C445.919 85.0854 446.104 81.9205 447.345 79.1085C447.984 77.9597 448.494 76.7439 448.867 75.4831C449.217 73.7333 448.666 71.8549 449.244 70.1665C450.023 67.8913 452.601 66.7315 454.994 66.4959C457.388 66.2603 459.82 66.682 462.199 66.3346C464.331 66.0234 466.395 65.0995 468.545 65.2334C471.125 65.394 473.371 67.0564 475.159 68.9229C476.948 70.7895 478.465 72.9363 480.496 74.5353C481.118 74.9632 481.692 75.4572 482.207 76.0085C483.242 77.2692 483.347 79.0652 483.059 80.6705C482.771 82.2758 482.145 83.807 481.88 85.4163C481.632 86.9287 481.709 88.4738 481.602 90.0027C481.576 91.5447 481.11 93.0473 480.256 94.332C479.888 94.8325 479.41 95.2422 478.859 95.5301C478.308 95.8179 477.698 95.9763 477.077 95.993C476.646 96.003 476.283 95.6161 475.848 95.717C475.305 95.8431 475.069 96.3589 474.587 96.5799Z" fill="#2F2E41"/>
<path opacity="0.1" d="M432.247 128.924L424.838 124.935C424.838 124.935 406.828 167.793 411.16 179.648C415.491 191.502 432.133 215.895 432.133 215.895C432.133 215.895 445.355 213.159 443.988 210.424C442.62 207.688 433.729 190.134 433.045 187.855C432.361 185.575 427.802 170.757 429.853 169.161C431.905 167.565 435.895 130.52 435.895 130.52L432.247 128.924Z" fill="black"/>
<path d="M432.361 122.427L423.242 124.935C423.242 124.935 405.233 167.793 409.564 179.648C413.896 191.502 430.537 215.895 430.537 215.895C430.537 215.895 443.76 213.16 442.392 210.424C441.024 207.688 432.133 190.134 431.449 187.855C430.765 185.575 426.206 170.757 428.258 169.161C430.309 167.565 440.112 128.126 440.112 128.126L432.361 122.427Z" fill="#575A89"/>
<path d="M396.657 101.795L367.55 81.1316L346.886 110.239L375.994 130.902L396.657 101.795Z" fill="#F0F0F0"/>
<path d="M140.02 456.677C209.256 456.677 265.383 452.984 265.383 448.429C265.383 443.874 209.256 440.182 140.02 440.182C70.7834 440.182 14.6562 443.874 14.6562 448.429C14.6562 452.984 70.7834 456.677 140.02 456.677Z" fill="#F2F2F2"/>
<path d="M444.636 422.641C513.872 422.641 570 418.949 570 414.394C570 409.839 513.872 406.146 444.636 406.146C375.4 406.146 319.272 409.839 319.272 414.394C319.272 418.949 375.4 422.641 444.636 422.641Z" fill="#F2F2F2"/>
<path d="M14.6523 397.889L442.935 397.944" stroke="#3F3D56" stroke-width="2" stroke-miterlimit="10"/>
<path d="M394.266 161.746C398.436 161.746 401.817 158.365 401.817 154.195C401.817 150.025 398.436 146.644 394.266 146.644C390.096 146.644 386.715 150.025 386.715 154.195C386.715 158.365 390.096 161.746 394.266 161.746Z" stroke="#3F3D56" stroke-width="2" stroke-miterlimit="10"/>
<path d="M106.638 45.7341H90.1631V62.2092H106.638V45.7341Z" stroke="#3F3D56" stroke-width="2" stroke-miterlimit="10"/>
<path d="M127.918 275.699H111.443V292.174H127.918V275.699Z" stroke="#3F3D56" stroke-width="2" stroke-miterlimit="10"/>
<path d="M22.1865 399.182V348.102" stroke="#3F3D56" stroke-width="2" stroke-miterlimit="10"/>
<path d="M22.1864 355.325C26.1758 355.325 29.4099 352.091 29.4099 348.102C29.4099 344.112 26.1758 340.878 22.1864 340.878C18.197 340.878 14.9629 344.112 14.9629 348.102C14.9629 352.091 18.197 355.325 22.1864 355.325Z" fill="#3F3D56"/>
<path d="M22.1865 379.584C22.1865 379.584 21.1546 357.389 0 359.969L22.1865 379.584Z" fill="#3F3D56"/>
<path d="M351.042 90.252H348.339C347.47 90.252 346.766 90.9563 346.766 91.8251V136.907C346.766 137.776 347.47 138.48 348.339 138.48H351.042C351.911 138.48 352.615 137.776 352.615 136.907V91.8251C352.615 90.9563 351.911 90.252 351.042 90.252Z" fill="#3F3D56"/>
<path d="M154.552 52.4692H153.333C152.763 52.4692 152.301 52.9312 152.301 53.5012V67.3144C152.301 67.8843 152.763 68.3463 153.333 68.3463H154.552C155.122 68.3463 155.584 67.8843 155.584 67.3144V53.5012C155.584 52.9312 155.122 52.4692 154.552 52.4692Z" fill="#3F3D56"/>
<path d="M154.719 81.5376H153.345C152.702 81.5376 152.182 82.0584 152.182 82.7009V108.01C152.182 108.652 152.702 109.173 153.345 109.173H154.719C155.362 109.173 155.882 108.652 155.882 108.01V82.7009C155.882 82.0584 155.362 81.5376 154.719 81.5376Z" fill="#3F3D56"/>
<path d="M154.656 118.843H153.348C152.737 118.843 152.241 119.338 152.241 119.95V145.61C152.241 146.222 152.737 146.717 153.348 146.717H154.656C155.267 146.717 155.763 146.222 155.763 145.61V119.95C155.763 119.338 155.267 118.843 154.656 118.843Z" fill="#3F3D56"/>
<path d="M325.42 0H178.663C165.13 0 154.16 10.9702 154.16 24.5025V373.356C154.16 386.888 165.13 397.858 178.663 397.858H325.42C338.952 397.858 349.923 386.888 349.923 373.356V24.5025C349.923 10.9702 338.952 0 325.42 0Z" fill="#3F3D56"/>
<path d="M258.75 11.8811H234.902C233.938 11.8811 233.157 12.6623 233.157 13.626V15.6872C233.157 16.6509 233.938 17.4321 234.902 17.4321H258.75C259.713 17.4321 260.494 16.6509 260.494 15.6872V13.626C260.494 12.6623 259.713 11.8811 258.75 11.8811Z" fill="#E6E8EC"/>
<path d="M267.776 17.8052C269.515 17.8052 270.925 16.3955 270.925 14.6566C270.925 12.9177 269.515 11.5081 267.776 11.5081C266.038 11.5081 264.628 12.9177 264.628 14.6566C264.628 16.3955 266.038 17.8052 267.776 17.8052Z" fill="#E6E8EC"/>
<path d="M337.834 25.9123V371.95C337.833 376.073 336.194 380.026 333.278 382.941C330.362 385.856 326.408 387.493 322.285 387.493H181.799C177.676 387.493 173.721 385.856 170.805 382.941C167.889 380.026 166.251 376.073 166.25 371.95V25.9123C166.25 23.8704 166.652 21.8484 167.433 19.9619C168.215 18.0754 169.36 16.3613 170.804 14.9174C172.248 13.4736 173.962 12.3283 175.848 11.547C177.735 10.7656 179.757 10.3636 181.799 10.3638H202.821V13.0639C202.822 16.4592 204.171 19.7151 206.572 22.1159C208.973 24.5167 212.229 25.8659 215.624 25.8669H287.07C290.465 25.8669 293.722 24.518 296.123 22.117C298.524 19.7159 299.873 16.4595 299.873 13.0639V10.3638H322.285C324.327 10.3636 326.349 10.7656 328.235 11.547C330.122 12.3283 331.836 13.4736 333.28 14.9174C334.724 16.3613 335.869 18.0754 336.65 19.9619C337.432 21.8484 337.834 23.8704 337.834 25.9123Z" fill="white"/>
<path opacity="0.3" d="M337.993 68.3677H166.114V186.357H337.993V68.3677Z" fill="#CCCCCC"/>
<path opacity="0.3" d="M337.993 224.93H166.114V342.92H337.993V224.93Z" fill="#CCCCCC"/>
<path opacity="0.3" d="M166.114 68.3677L337.993 186.357" stroke="#00CDAC" stroke-width="2" stroke-miterlimit="10"/>
<path opacity="0.3" d="M337.993 68.3677L166.114 186.357" stroke="#00CDAC" stroke-width="2" stroke-miterlimit="10"/>
<path opacity="0.3" d="M166.114 224.93L337.993 342.92" stroke="#00CDAC" stroke-width="2" stroke-miterlimit="10"/>
<path opacity="0.3" d="M337.993 224.93L166.114 342.92" stroke="#00CDAC" stroke-width="2" stroke-miterlimit="10"/>
<path d="M537.099 296.405H365.221V414.394H537.099V296.405Z" fill="#00CDAC"/>
<path d="M537.1 414.394L500.669 343.228L488.316 376.955L444.637 312.855L415.707 352.563L401.642 335.626L365.221 380.653V414.394H537.1Z" fill="#3F3D56"/>
<path d="M516.11 336.113C523.003 336.113 528.59 330.525 528.59 323.633C528.59 316.741 523.003 311.153 516.11 311.153C509.218 311.153 503.631 316.741 503.631 323.633C503.631 330.525 509.218 336.113 516.11 336.113Z" fill="#3F3D56"/>
<path d="M222.272 329.305H50.3936V447.295H222.272V329.305Z" fill="#00CDAC"/>
<path d="M208.374 355.399H64.291V362.206H208.374V355.399Z" fill="#3F3D56"/>
<path d="M208.374 370.148H64.291V376.955H208.374V370.148Z" fill="#3F3D56"/>
<path d="M208.374 384.896H64.291V391.704H208.374V384.896Z" fill="#3F3D56"/>
<path d="M208.374 399.645H64.291V406.452H208.374V399.645Z" fill="#3F3D56"/>
<path d="M208.374 414.394H64.291V421.201H208.374V414.394Z" fill="#3F3D56"/>
</g>
<defs>
<clipPath id="clip0">
<rect width="570" height="456.677" fill="white"/>
</clipPath>
</defs>
</svg>
