<svg width="570" height="344" viewBox="0 0 570 344" fill="none" xmlns="http://www.w3.org/2000/svg">
<g clip-path="url(#clip0)">
<path d="M547.306 17.1528H22.6946V306.903H547.306V17.1528Z" fill="url(#paint0_linear)"/>
<path d="M150.663 182.947L150.055 182.81C156.102 156.077 169.946 131.739 189.834 112.879C209.722 94.0193 234.759 81.4848 261.775 76.8631C288.791 72.2413 316.571 75.7401 341.597 86.9164C366.624 98.0927 387.771 116.444 402.361 139.646C410.658 152.804 416.66 167.274 420.111 182.442L419.503 182.58C405.144 119.53 349.885 75.4952 285.125 75.4952C221.213 75.4952 164.664 120.685 150.663 182.947Z" fill="#F2F2F2"/>
<path d="M570 324.055H0V0H570V324.055ZM1.05556 323H568.944V1.05556H1.05556V323Z" fill="#3F3D56"/>
<path d="M39.0554 29.0278C41.6788 29.0278 43.8054 26.9012 43.8054 24.2778C43.8054 21.6545 41.6788 19.5278 39.0554 19.5278C36.4321 19.5278 34.3054 21.6545 34.3054 24.2778C34.3054 26.9012 36.4321 29.0278 39.0554 29.0278Z" fill="url(#paint1_linear)"/>
<path d="M53.3054 29.0278C55.9288 29.0278 58.0554 26.9012 58.0554 24.2778C58.0554 21.6545 55.9288 19.5278 53.3054 19.5278C50.6821 19.5278 48.5554 21.6545 48.5554 24.2778C48.5554 26.9012 50.6821 29.0278 53.3054 29.0278Z" fill="#F2F2F2"/>
<path d="M67.5554 29.0278C70.1788 29.0278 72.3054 26.9012 72.3054 24.2778C72.3054 21.6545 70.1788 19.5278 67.5554 19.5278C64.9321 19.5278 62.8054 21.6545 62.8054 24.2778C62.8054 26.9012 64.9321 29.0278 67.5554 29.0278Z" fill="#F2F2F2"/>
<path d="M22.6946 221.524V222.606C62.5946 231.853 93.2585 265.493 98.0401 306.903H99.1062C94.3035 264.913 63.1804 230.797 22.6946 221.524Z" fill="#F2F2F2"/>
<path opacity="0.1" d="M78.8132 306.903H22.6946V247.143C36.9628 250.327 49.9437 257.729 59.9513 268.386C69.9589 279.043 76.5307 292.463 78.8132 306.903Z" fill="black"/>
<path opacity="0.1" d="M547.306 249.465V305.583H487.545C490.73 291.315 498.132 278.334 508.789 268.326C519.446 258.319 532.866 251.747 547.306 249.465Z" fill="black"/>
<path d="M481.238 96.6361L480.901 96.2297L354.556 201.009L354.149 201.347L441.692 306.903H443.064L355.638 201.484L480.763 97.7181L547.306 177.956V176.299L481.238 96.6361Z" fill="#F2F2F2"/>
<path d="M230.391 193.219C230.412 195.932 230.313 198.663 230.095 201.41C229.963 203.184 229.773 204.957 229.536 206.736C229.404 207.765 229.252 208.794 229.082 209.823C228.786 211.612 228.445 213.382 228.058 215.133C228 215.407 227.937 215.676 227.868 215.951C223.986 232.94 215.622 248.578 203.648 261.239C207.808 264.428 211.113 268.598 213.266 273.377C215.419 278.155 216.353 283.393 215.986 288.622C215.618 293.85 213.959 298.906 211.159 303.336C208.358 307.766 204.502 311.433 199.937 314.007C195.371 316.582 190.239 317.985 184.999 318.089C179.758 318.194 174.574 316.997 169.909 314.607C165.245 312.216 161.246 308.707 158.271 304.392C155.295 300.077 153.436 295.091 152.86 289.882C140.835 292.465 128.43 292.758 116.296 290.747C62.8054 281.944 26.5788 231.452 35.3768 177.961C44.1749 124.471 94.6727 88.2391 148.163 97.0424C166.139 99.9939 182.939 107.89 196.682 119.847C210.425 131.805 220.569 147.351 225.979 164.746C226.063 165.02 226.142 165.289 226.227 165.564C227.103 168.451 227.843 171.387 228.449 174.372C228.807 176.135 229.114 177.909 229.377 179.698C229.768 182.4 230.053 185.134 230.217 187.889C230.327 189.657 230.385 191.434 230.391 193.219Z" fill="#3F3D56"/>
<path d="M387.671 132.74C405.653 132.74 420.23 118.162 420.23 100.18C420.23 82.1981 405.653 67.6206 387.671 67.6206C369.689 67.6206 355.111 82.1981 355.111 100.18C355.111 118.162 369.689 132.74 387.671 132.74Z" fill="#A0616A"/>
<path d="M400.389 125.109C400.389 125.109 396.319 144.441 396.319 146.476C396.319 148.511 376.987 157.668 376.987 157.668L359.69 154.616L353.585 136.301C353.585 136.301 363.76 121.039 363.76 114.934L400.389 125.109Z" fill="#A0616A"/>
<path d="M440.072 170.895L419.473 230.618V230.623L409.545 259.419C409.545 259.419 408.532 292.996 407.513 296.046C406.495 299.097 408.532 300.116 409.545 301.134C410.564 302.153 408.532 305.203 407.513 305.203C407.302 305.203 407.001 305.863 406.663 306.903H308.022L315.938 222.786L315.453 218.864L306.781 148.512L356.968 130.868V130.873C356.963 131.253 356.836 145.53 371.899 150.543C387.162 155.631 397.665 138.521 397.665 138.521L440.072 170.895Z" fill="#D0CDE1"/>
<path d="M233.012 312.835C233.012 312.835 205.54 330.133 208.593 341.325C211.645 352.517 243.187 321.993 243.187 320.975C243.187 319.958 233.012 312.835 233.012 312.835Z" fill="#A0616A"/>
<path d="M415.906 73.948C415.906 73.948 405.569 51.5499 385.755 56.7187C365.942 61.8875 354.743 69.6407 353.881 77.3939C353.02 85.147 354.312 96.7768 354.312 96.7768C354.312 96.7768 356.465 80.8397 370.249 84.2856C384.032 87.7314 405.569 85.147 405.569 85.147L409.015 116.16C409.015 116.16 412.891 110.56 417.199 114.006C421.506 117.452 429.69 80.8397 415.906 73.948Z" fill="#2F2E41"/>
<path d="M459.404 263.488C459.404 263.488 459.404 286.736 450.86 306.903H421.499L421.758 306.222V301.134C421.758 301.134 424.808 297.065 424.808 296.046C424.808 295.028 420.739 295.028 423.79 292.996C426.846 290.959 429.896 270.608 429.896 270.608C429.896 270.608 428.878 266.538 427.859 265.52C426.846 264.506 428.878 261.451 428.878 261.451L426.846 258.4L419.473 230.623V230.618L413.614 208.541L424.808 170.895H440.072C440.072 170.895 453.298 182.089 452.279 203.453L459.404 263.488Z" fill="#D0CDE1"/>
<path d="M324.078 145.458L306.78 148.511C306.78 148.511 296.606 158.686 292.536 170.896L284.396 207.525L271.168 233.98C271.168 233.98 255.906 249.242 244.714 283.837L228.434 314.362L245.731 324.536C245.731 324.536 293.553 268.575 299.658 249.242L326.113 198.368L324.078 145.458Z" fill="#D0CDE1"/>
<path d="M219.028 336.194C223.4 336.194 226.944 332.65 226.944 328.278C226.944 323.906 223.4 320.361 219.028 320.361C214.655 320.361 211.111 323.906 211.111 328.278C211.111 332.65 214.655 336.194 219.028 336.194Z" fill="#3F3D56"/>
<path d="M51.4266 215.133V165.564H226.227C226.142 165.289 226.063 165.02 225.979 164.746H50.6033V215.951H227.868C227.937 215.676 228 215.407 228.058 215.133H51.4266Z" fill="#F2F2F2"/>
<path opacity="0.1" d="M80.5103 185.024H59.208V206.326H80.5103V185.024Z" fill="black"/>
<path d="M58.7998 173.961V206.736H91.5695V173.961H58.7998ZM90.7515 205.918H59.6179V174.784H90.7515V205.918Z" fill="url(#paint2_linear)"/>
<path d="M156.222 253.861H137.222V234.861H156.222V253.861ZM138.278 252.806H155.167V235.917H138.278V252.806Z" fill="url(#paint3_linear)"/>
<path d="M114.625 247.805L107.838 241.583L108.551 240.806L114.43 246.195L127.811 226.124L128.689 226.71L114.625 247.805Z" fill="#F2F2F2"/>
<path d="M121.389 239.611V252.806H104.5V235.917H117.694V234.861H103.444V253.861H122.444V239.611H121.389Z" fill="#F2F2F2"/>
<path d="M517.426 64.4091C513.942 64.4091 510.537 63.376 507.64 61.4404C504.743 59.5048 502.485 56.7537 501.152 53.5349C499.819 50.3161 499.47 46.7743 500.15 43.3572C500.829 39.9402 502.507 36.8014 504.97 34.3379C507.434 31.8743 510.573 30.1966 513.99 29.5169C517.407 28.8373 520.949 29.1861 524.167 30.5194C527.386 31.8526 530.137 34.1104 532.073 37.0072C534.009 39.9041 535.042 43.3098 535.042 46.7938C535.036 51.464 533.179 55.9415 529.876 59.2438C526.574 62.5462 522.097 64.4038 517.426 64.4091ZM517.426 29.9978C514.104 29.9978 510.857 30.9829 508.095 32.8284C505.333 34.674 503.18 37.2972 501.909 40.3662C500.638 43.4353 500.305 46.8124 500.953 50.0705C501.601 53.3286 503.201 56.3214 505.55 58.6704C507.899 61.0193 510.892 62.619 514.15 63.267C517.408 63.9151 520.785 63.5825 523.854 62.3113C526.923 61.04 529.546 58.8872 531.392 56.1251C533.237 53.3631 534.222 50.1157 534.222 46.7938C534.217 42.3408 532.446 38.0716 529.297 34.9228C526.149 31.774 521.879 30.0028 517.426 29.9978Z" fill="#F2F2F2"/>
<path d="M528.777 36.842L528.197 36.2625L517.427 47.0339L506.655 36.2625L506.076 36.842L516.847 47.6128L507.51 56.9503L508.089 57.5298L517.427 48.1923L526.764 57.5298L527.343 56.9503L518.006 47.6128L528.777 36.842Z" fill="#F2F2F2"/>
<path d="M214.278 181.922H112.944V182.977H214.278V181.922Z" fill="#F2F2F2"/>
<path d="M214.278 190.366H112.944V191.422H214.278V190.366Z" fill="#F2F2F2"/>
<path d="M214.278 198.811H112.944V199.866H214.278V198.811Z" fill="#F2F2F2"/>
</g>
<defs>
<linearGradient id="paint0_linear" x1="22.6946" y1="17.1528" x2="314.763" y2="556.263" gradientUnits="userSpaceOnUse">
<stop stop-color="#00CDAC"/>
<stop offset="1" stop-color="#02AAB0"/>
</linearGradient>
<linearGradient id="paint1_linear" x1="34.3054" y1="19.5278" x2="45.7351" y2="31.1802" gradientUnits="userSpaceOnUse">
<stop stop-color="#FE7145"/>
<stop offset="1" stop-color="#FF4D00"/>
</linearGradient>
<linearGradient id="paint2_linear" x1="58.7998" y1="173.961" x2="98.2324" y2="214.155" gradientUnits="userSpaceOnUse">
<stop stop-color="#E9B395"/>
<stop offset="1" stop-color="#D3936F"/>
</linearGradient>
<linearGradient id="paint3_linear" x1="137.222" y1="234.861" x2="160.082" y2="258.166" gradientUnits="userSpaceOnUse">
<stop stop-color="#E9B395"/>
<stop offset="1" stop-color="#D3936F"/>
</linearGradient>
<clipPath id="clip0">
<rect width="570" height="343.788" fill="white"/>
</clipPath>
</defs>
</svg>
