<svg width="570" height="385" viewBox="0 0 570 385" fill="none" xmlns="http://www.w3.org/2000/svg">
<g clip-path="url(#clip0)">
<path opacity="0.1" d="M308.398 56.2904C273.369 56.2352 239.619 45.3985 207.329 33.3386C175.038 21.2788 143.004 7.83057 108.61 2.06131C86.4617 -1.64786 61.344 -1.39724 44.0939 11.7753C27.4981 24.4517 22.7464 45.4887 20.4712 64.9468C18.7648 79.573 17.9997 94.9359 24.5836 108.339C29.1592 117.647 36.9613 125.326 42.4831 134.203C61.6964 165.079 50.2953 204.376 31.7918 235.864C23.1088 250.606 12.9359 264.756 6.38718 280.374C-0.161539 295.993 -2.81425 313.717 3.95091 329.17C10.6657 344.493 25.7665 355.666 41.9194 363.289C74.7837 378.828 112.974 382.246 150.142 383.635C232.431 386.712 314.846 381.229 397.045 375.715C427.463 373.68 458.017 371.625 487.796 365.545C504.331 362.172 521.35 357.144 533.048 346.037C547.897 331.942 550.877 308.86 539.999 292.234C521.747 264.32 473.848 258.926 460.71 228.762C453.477 212.156 459.618 193.174 468.693 177.204C488.168 142.975 521.768 112.359 522.226 74.0042C522.538 47.659 504.945 21.9104 478.75 10.3819C451.287 -1.71804 413.918 1.25932 394.775 23.5544C375.063 46.5112 339.33 56.3405 308.398 56.2904Z" fill="url(#paint0_linear)"/>
<path d="M482.642 313.776C482.642 313.776 476.456 309.711 470.325 312.603C470.325 312.603 472.212 316.227 479.974 315.881L482.642 313.776Z" fill="#00CDAC"/>
<path d="M483.402 313.996C483.402 313.996 485.284 321.134 480.568 325.991C480.568 325.991 477.729 323.044 480.568 315.836L483.402 313.996Z" fill="#00CDAC"/>
<path d="M491.118 307.144C491.118 307.144 490.66 301.069 476.898 303.084C476.898 303.084 476.833 307.004 481.665 308.858C486.498 310.713 488.707 309.149 491.118 307.144Z" fill="#00CDAC"/>
<path d="M491.964 307.099C491.964 307.099 497.788 308.964 492.598 321.82C492.598 321.82 488.758 320.963 488.068 315.851C487.378 310.738 489.442 308.964 491.964 307.099Z" fill="#00CDAC"/>
<path d="M499.761 298.488C499.761 298.488 500.546 288.498 486.477 289.526C486.477 289.526 485.471 298.548 497.275 300.889L499.761 298.488Z" fill="#00CDAC"/>
<path d="M509.058 287.21C509.058 287.21 507.125 275.892 493.066 279.265C493.066 279.265 493.011 289.055 506.758 289.912L509.058 287.21Z" fill="#00CDAC"/>
<path d="M515.849 275.551C515.849 275.551 512.622 264.524 498.689 267.827C498.689 267.827 502.001 277.742 514.922 277.591L515.849 275.551Z" fill="#00CDAC"/>
<path d="M522.302 264.168C522.302 264.168 519.146 252.725 505.691 256.148C505.691 256.148 510.181 267.02 521.416 266.108L522.302 264.168Z" fill="#00CDAC"/>
<path d="M526.464 253.351C526.464 253.351 524.038 239.377 511.51 242.454C511.51 242.454 515.154 255.186 525.553 255.386L526.464 253.351Z" fill="#00CDAC"/>
<path d="M530.36 240.284C530.36 240.284 527.451 226.174 514.756 230.259C514.756 230.259 519.735 243.587 529.465 242.209L530.36 240.284Z" fill="#00CDAC"/>
<path d="M532.777 228.119C532.777 228.119 528.151 214.014 518.34 214.395C518.34 214.395 523.072 229.297 531.931 230.936L532.777 228.119Z" fill="#00CDAC"/>
<path d="M534.312 216.255C534.312 216.255 529.278 199.273 521.295 200.581C521.295 200.581 524.778 213.563 534.03 218.896L534.312 216.255Z" fill="#00CDAC"/>
<path d="M535.167 202.079C535.167 202.079 530.451 187.924 522.583 187.363C522.583 187.363 525.795 201.287 535.006 205.754L535.167 202.079Z" fill="#00CDAC"/>
<path d="M536.139 188.882C536.139 188.882 530.255 174.712 525.065 174.396C525.065 174.396 527.617 188.34 535.636 191.208L536.139 188.882Z" fill="#00CDAC"/>
<path d="M536.788 176.592C536.788 176.592 533.154 161.184 527.969 159.93C527.969 159.93 528.684 172.512 536.27 177.739L536.788 176.592Z" fill="#00CDAC"/>
<path d="M538.746 160.507C538.746 160.507 534.941 148.247 530.728 146.377C530.728 146.377 531.563 160.833 537.775 163.509L538.746 160.507Z" fill="#00CDAC"/>
<path d="M540.372 149.946L541.142 128.322C541.142 128.322 533.28 144.638 539.793 153.76L540.372 149.946Z" fill="#00CDAC"/>
<path d="M546.458 128.458C546.458 128.458 552.126 112.664 553.505 111.786C553.505 111.786 542.381 122.027 543.468 135.209L546.458 128.458Z" fill="#00CDAC"/>
<path d="M500.144 298.418C500.144 298.418 510.12 297.114 509.818 311.159C509.818 311.159 500.803 312.618 497.864 301.009L500.144 298.418Z" fill="#00CDAC"/>
<path d="M509.526 286.834C509.526 286.834 521.058 286.794 520.097 301.169C520.097 301.169 510.422 302.889 507.226 289.546L509.526 286.834Z" fill="#00CDAC"/>
<path d="M515.959 276.468C515.959 276.468 526.424 271.581 533.124 284.192C533.124 284.192 523.454 288.268 515.038 278.503L515.959 276.468Z" fill="#00CDAC"/>
<path d="M522.538 264.273C522.538 264.273 533.25 259.071 539.542 271.396C539.542 271.396 528.382 275.226 521.652 266.223L522.538 264.273Z" fill="#00CDAC"/>
<path d="M526.329 253.652C526.329 253.652 536.642 243.843 544.872 253.767C544.872 253.767 534.337 261.837 525.85 255.838L526.329 253.652Z" fill="#00CDAC"/>
<path d="M529.777 239.948C529.777 239.948 540.156 229.923 548.32 240.409C548.32 240.409 536.673 248.645 529.409 242.053L529.777 239.948Z" fill="#00CDAC"/>
<path d="M531.719 227.718C531.719 227.718 539.713 215.187 549.121 217.989C549.121 217.989 540.83 231.257 531.81 230.665L531.719 227.718Z" fill="#00CDAC"/>
<path d="M534.075 216.174C534.075 216.174 542.129 200.39 549.745 203.142C549.745 203.142 543.941 215.272 533.869 218.836L534.075 216.174Z" fill="#00CDAC"/>
<path d="M534.629 201.283C534.629 201.283 542.909 188.862 550.666 190.376C550.666 190.376 543.901 202.972 533.829 204.877L534.629 201.283Z" fill="#00CDAC"/>
<path d="M535.263 188.601C535.263 188.601 541.676 174.667 546.896 174.542C546.896 174.542 543.815 188.386 535.691 190.947L535.263 188.601Z" fill="#00CDAC"/>
<path d="M536.531 176.286C536.531 176.286 543.664 162.171 549.025 162.146C549.025 162.146 545.375 174.211 536.773 177.529L536.531 176.286Z" fill="#00CDAC"/>
<path d="M537.609 161.374C537.609 161.374 542.944 149.695 547.359 148.372C547.359 148.372 544.691 162.607 538.193 164.472L537.609 161.374Z" fill="#00CDAC"/>
<path d="M541.011 149.535L552.931 131.45C552.931 131.45 549.881 149.289 539.27 153.003L541.011 149.535Z" fill="#00CDAC"/>
<path d="M549.196 129.911C549.196 129.911 563.053 120.388 563.552 118.844C563.552 118.844 556.505 132.187 543.417 134.543L549.196 129.911Z" fill="#00CDAC"/>
<path d="M550.022 125.625C550.022 125.625 565.933 110.393 569.995 110.413C569.995 110.413 556.872 111.009 549.639 124.813L550.022 125.625Z" fill="#00CDAC"/>
<path d="M537.76 163.635L538.339 163.71C541.329 140.402 545.688 126.618 550.616 124.924L550.424 124.377C545.205 126.182 540.825 139.755 537.76 163.635Z" fill="#444053"/>
<path d="M533.365 219.357L534.241 219.432C534.423 217.257 534.563 215.027 534.659 212.811C535.495 193.518 536.793 175.81 538.495 162.532L537.991 161.905C536.285 175.208 534.624 193.458 533.788 212.771C533.688 214.976 533.547 217.192 533.365 219.357Z" fill="#444053"/>
<path d="M466.303 324.873C466.459 324.803 481.877 317.951 497.879 301.595C507.252 292.018 515.042 281.021 520.958 269.015C528.352 254.013 532.862 235.577 534.377 217.668L533.466 218.094C530.069 258.288 511.691 285.761 497.073 300.718C481.227 316.928 465.986 323.715 465.835 323.775L466.303 324.873Z" fill="#444053"/>
<path d="M527.879 24.5005H44.2101C43.0674 24.5005 41.9714 24.9525 41.1634 25.7572C40.3553 26.5618 39.9014 27.6532 39.9014 28.7911V41.292H532.188V28.7911C532.188 27.6532 531.734 26.5618 530.926 25.7572C530.117 24.9525 529.022 24.5005 527.879 24.5005Z" fill="#3F3D56"/>
<path d="M39.9014 41.2922V322.608C39.9014 324.902 40.8167 327.103 42.446 328.725C44.0753 330.348 46.2852 331.259 48.5894 331.259H523.5C525.804 331.259 528.014 330.348 529.643 328.725C531.272 327.103 532.188 324.902 532.188 322.608V41.2922H39.9014Z" fill="white"/>
<path opacity="0.8" d="M47.7034 34.7709C48.8154 34.7709 49.7168 33.8733 49.7168 32.7659C49.7168 31.6586 48.8154 30.761 47.7034 30.761C46.5914 30.761 45.6899 31.6586 45.6899 32.7659C45.6899 33.8733 46.5914 34.7709 47.7034 34.7709Z" fill="#FA5959"/>
<path opacity="0.8" d="M53.2404 34.7709C54.3524 34.7709 55.2538 33.8733 55.2538 32.7659C55.2538 31.6586 54.3524 30.761 53.2404 30.761C52.1284 30.761 51.2269 31.6586 51.2269 32.7659C51.2269 33.8733 52.1284 34.7709 53.2404 34.7709Z" fill="#FED253"/>
<path opacity="0.8" d="M58.7774 34.7709C59.8894 34.7709 60.7908 33.8733 60.7908 32.7659C60.7908 31.6586 59.8894 30.761 58.7774 30.761C57.6654 30.761 56.7639 31.6586 56.7639 32.7659C56.7639 33.8733 57.6654 34.7709 58.7774 34.7709Z" fill="#8CCF4D"/>
<g opacity="0.3">
<path opacity="0.3" d="M513.815 58.3291H58.7773V313.961H513.815V58.3291Z" stroke="#3F3D56" stroke-miterlimit="10"/>
<path opacity="0.3" d="M454.418 58.3291H118.174V313.961H454.418V58.3291Z" stroke="#3F3D56" stroke-miterlimit="10"/>
<path opacity="0.3" d="M395.022 58.3291H177.57V313.961H395.022V58.3291Z" stroke="#3F3D56" stroke-miterlimit="10"/>
<path opacity="0.3" d="M335.625 58.3291H236.967V313.961H335.625V58.3291Z" stroke="#3F3D56" stroke-miterlimit="10"/>
<path opacity="0.3" d="M286.296 58.3291V313.961" stroke="#3F3D56" stroke-miterlimit="10"/>
<path opacity="0.3" d="M513.815 95.4209H58.7773V276.869H513.815V95.4209Z" stroke="#3F3D56" stroke-miterlimit="10"/>
<path opacity="0.3" d="M513.815 132.011H58.7773V240.279H513.815V132.011Z" stroke="#3F3D56" stroke-miterlimit="10"/>
<path opacity="0.3" d="M513.815 168.602H58.7773V203.688H513.815V168.602Z" stroke="#3F3D56" stroke-miterlimit="10"/>
</g>
<path opacity="0.1" d="M165.741 72.6145H130.003V85.6467H165.741V72.6145Z" fill="#3F3D56"/>
<path opacity="0.1" d="M100.808 108.202H74.1299V121.235H100.808V108.202Z" fill="#3F3D56"/>
<path opacity="0.1" d="M223.628 72.6145H187.889V85.6467H223.628V72.6145Z" fill="#3F3D56"/>
<path opacity="0.1" d="M277.991 72.6145H242.252V85.6467H277.991V72.6145Z" fill="#3F3D56"/>
<path opacity="0.1" d="M328.327 72.6145H292.588V85.6467H328.327V72.6145Z" fill="#3F3D56"/>
<path opacity="0.1" d="M384.703 72.6145H348.965V85.6467H384.703V72.6145Z" fill="#3F3D56"/>
<path opacity="0.1" d="M442.086 72.6145H406.348V85.6467H442.086V72.6145Z" fill="#3F3D56"/>
<path opacity="0.1" d="M502.993 72.6145H467.254V85.6467H502.993V72.6145Z" fill="#3F3D56"/>
<path d="M223.955 143.264H200.735V165.65H223.955V143.264Z" fill="url(#paint1_linear)"/>
<path d="M223.557 143.65H201.138V165.264H223.557V143.65Z" fill="#7CFCFF"/>
<path d="M271.794 138.412H248.574V160.797H271.794V138.412Z" fill="url(#paint2_linear)"/>
<path d="M271.397 138.798H248.977V160.412H271.397V138.798Z" fill="#FFFFA5"/>
<path d="M363.909 214.601H340.689V236.986H363.909V214.601Z" fill="url(#paint3_linear)"/>
<path d="M363.512 214.987H341.092V236.6H363.512V214.987Z" fill="#FFFFA5"/>
<path d="M159.414 103.371H136.194V125.756H159.414V103.371Z" fill="url(#paint4_linear)"/>
<path d="M159.011 103.756H136.592V125.37H159.011V103.756Z" fill="#FFFFA5"/>
<path d="M205.552 135.45H182.332V157.835H205.552V135.45Z" fill="url(#paint5_linear)"/>
<path d="M205.15 135.836H182.73V157.449H205.15V135.836Z" fill="url(#paint6_linear)"/>
<path d="M391.071 214.44H367.851V236.826H391.071V214.44Z" fill="url(#paint7_linear)"/>
<path d="M390.673 214.826H368.253V236.44H390.673V214.826Z" fill="#7CFCFF"/>
<path d="M431.843 103.666H408.623V126.052H431.843V103.666Z" fill="url(#paint8_linear)"/>
<path d="M431.445 104.052H409.025V125.666H431.445V104.052Z" fill="#7CFCFF"/>
<path d="M429.326 174.842H406.106V197.228H429.326V174.842Z" fill="url(#paint9_linear)"/>
<path d="M428.928 175.228H406.509V196.842H428.928V175.228Z" fill="#7CFCFF"/>
<path d="M446.943 179.854H423.723V202.24H446.943V179.854Z" fill="url(#paint10_linear)"/>
<path d="M446.546 180.24H424.126V201.854H446.546V180.24Z" fill="#7CFCFF"/>
<path d="M372.668 206.626H349.448V229.011H372.668V206.626Z" fill="url(#paint11_linear)"/>
<path d="M372.265 207.012H349.845V228.625H372.265V207.012Z" fill="url(#paint12_linear)"/>
<path d="M375.184 138.958H351.964V161.344H375.184V138.958Z" fill="url(#paint13_linear)"/>
<path d="M374.782 139.344H352.362V160.958H374.782V139.344Z" fill="url(#paint14_linear)"/>
<path opacity="0.1" d="M100.808 143.289H74.1299V156.321H100.808V143.289Z" fill="#3F3D56"/>
<path opacity="0.1" d="M100.808 179.88H74.1299V192.912H100.808V179.88Z" fill="#3F3D56"/>
<path opacity="0.1" d="M100.808 216.47H74.1299V229.502H100.808V216.47Z" fill="#3F3D56"/>
<path opacity="0.1" d="M100.808 253.061H74.1299V266.093H100.808V253.061Z" fill="#3F3D56"/>
<path opacity="0.1" d="M100.808 289.651H74.1299V302.683H100.808V289.651Z" fill="#3F3D56"/>
<path d="M155.171 175.975C155.916 175.504 155.619 174.241 154.854 173.805C154.089 173.369 153.137 173.514 152.277 173.684C152.313 173.466 152.279 173.241 152.18 173.043C152.08 172.845 151.92 172.684 151.723 172.582V172.391C152.226 171.89 152.035 170.888 151.421 170.446C150.807 170.005 149.85 169.985 149.025 170.025C149.084 169.527 149.023 169.022 148.848 168.552C148.673 168.081 148.389 167.659 148.018 167.319C147.874 167.164 147.676 167.069 147.464 167.053C146.961 167.053 146.82 167.695 146.785 168.171C146.689 169.421 146.482 170.661 146.166 171.875L130.521 197.939C128.78 200.446 134.191 192.927 132.449 195.458C131.567 196.836 130.534 198.112 129.369 199.263C128.322 200.192 127.152 200.974 125.89 201.583C125.048 201.608 124.218 201.373 123.515 200.912C122.631 200.295 121.858 199.534 121.229 198.661C119.866 196.935 118.632 195.111 117.54 193.203C117.161 192.599 116.876 191.941 116.694 191.253C116.462 190.17 116.694 188.997 116.266 187.98C116.084 187.6 115.858 187.244 115.592 186.917L114.509 185.489V185.423C114.389 183.308 112.662 181.674 111.051 180.281C109.682 179.088 108.197 177.845 106.39 177.614C105.424 177.489 104.432 177.674 103.466 177.554C102.675 177.454 101.925 177.158 101.14 177.028C100.384 176.925 99.6193 176.91 98.86 176.983L98.5378 176.687C100.208 175.984 101.628 174.796 102.61 173.278C103.355 172.08 103.763 170.697 104.452 169.464C105.293 167.96 106.541 166.717 107.472 165.274C109.722 161.85 110.135 157.444 109.224 153.454C108.313 149.465 106.179 145.841 103.687 142.608C98.8549 136.382 90.7509 134.087 83.1199 135.29C82.6166 135.37 82.1132 135.465 81.6098 135.575C80.326 135.844 79.073 136.242 77.8699 136.763C76.242 137.427 74.8295 138.525 73.7876 139.936C73.5068 140.349 73.269 140.789 73.0779 141.249C72.9373 141.601 72.8229 141.963 72.7356 142.332C72.5016 143.445 72.4388 144.588 72.5494 145.72C72.5796 146.106 72.6198 146.492 72.6651 146.878L72.7406 147.46C72.791 147.846 72.8463 148.232 72.9017 148.617C72.9822 149.199 73.0577 149.78 73.1131 150.352C73.1575 150.756 73.1793 151.163 73.1786 151.57C73.1786 151.675 73.1786 151.775 73.1786 151.876C73.1608 152.178 73.1153 152.478 73.0426 152.773C73.003 152.935 72.9525 153.094 72.8916 153.249C72.7103 153.709 72.4719 154.146 72.1819 154.547C71.7898 155.092 71.3645 155.613 70.9084 156.106L70.4705 156.607C70.3245 156.773 70.1836 156.943 70.0376 157.108C69.4621 157.777 68.9356 158.485 68.4621 159.229C68.231 159.603 68.0242 159.991 67.8429 160.392C67.7052 160.695 67.5858 161.006 67.4856 161.324C67.3574 161.75 67.2665 162.186 67.2137 162.627C67.2137 162.737 67.2137 162.848 67.1835 162.958C67.1835 163.173 67.1835 163.394 67.1835 163.615C67.1946 163.833 67.2181 164.05 67.254 164.266C67.2894 164.48 67.3399 164.691 67.405 164.898C67.4681 165.107 67.5472 165.312 67.6416 165.509C67.6416 165.564 67.6919 165.619 67.7221 165.675L67.8027 165.84C67.858 165.95 67.9134 166.056 67.9637 166.166C68.0397 166.325 68.0955 166.494 68.1299 166.667C68.1299 166.722 68.1299 166.782 68.1299 166.843C68.1299 166.903 68.1299 166.973 68.1299 167.033C68.0497 167.536 67.7841 167.992 67.3849 168.311C67.2842 168.406 67.1835 168.492 67.0778 168.582L66.9168 168.712L66.5896 168.968L66.2775 169.218C66.0033 169.447 65.749 169.699 65.5174 169.97C62.6831 169.819 59.8422 170.096 57.0912 170.792C56.1138 171.109 55.0979 171.293 54.071 171.339C53.8246 171.361 53.5764 171.323 53.3482 171.228C53.12 171.133 52.9188 170.983 52.7623 170.792C52.5879 170.416 52.5402 169.994 52.6264 169.589C52.7621 167.911 52.4857 166.225 51.821 164.677C51.6603 164.224 51.3825 163.821 51.0156 163.509C50.8287 163.358 50.5983 163.27 50.3576 163.257C50.117 163.244 49.8785 163.308 49.6767 163.439C50.5281 166.181 50.4054 169.132 49.3294 171.795C48.7767 173.05 48.1289 174.261 47.3914 175.419C46.2438 177.369 45.5995 179.599 44.5776 181.619C45.7203 185.474 45.4636 189.589 46.0877 193.569C46.6464 197.273 47.9451 200.822 49.2488 204.335C50.2555 206.987 51.3025 209.754 53.4368 211.618C54.1246 212.309 55.0525 212.711 56.0291 212.741C56.752 212.652 57.4426 212.391 58.0425 211.979C58.6651 211.641 59.239 211.222 59.7489 210.731C59.9376 210.525 60.1061 210.302 60.2523 210.064C60.3148 210.4 60.4431 210.72 60.6298 211.007C61.858 208.37 63.207 205.794 64.6567 203.273C65.0885 203.044 65.4936 202.768 65.8647 202.451C65.8647 202.541 65.91 202.631 65.9352 202.721C65.8698 202.962 65.8094 203.222 65.7439 203.448C65.6785 203.674 65.603 203.914 65.5325 204.14C65.462 204.365 65.4268 204.476 65.3714 204.641C65.3161 204.806 65.2355 205.042 65.16 205.242C65.0845 205.443 64.999 205.679 64.9134 205.894C64.8278 206.11 64.7976 206.205 64.7322 206.355C64.5761 206.736 64.4151 207.107 64.2288 207.478C64.3691 207.546 64.5137 207.605 64.6617 207.653L64.7573 207.683C64.8878 207.725 65.0206 207.758 65.155 207.784H65.301C65.3994 207.799 65.4985 207.809 65.598 207.814H65.7087H66.0359C66.3961 207.798 66.7529 207.738 67.098 207.633L67.2943 208.435C67.7964 210.237 68.1201 212.084 68.2607 213.949C68.3564 216.054 67.9889 218.194 68.3966 220.265C68.603 221.342 69.0208 222.375 69.1718 223.457C69.2691 224.477 69.2506 225.505 69.1164 226.52C68.8815 228.979 68.6466 231.441 68.4117 233.903C68.3901 234.807 68.1739 235.696 67.7775 236.51C67.4302 237.111 66.8664 237.798 67.2188 238.394C67.7989 238.241 68.3893 238.128 68.9856 238.059C68.7691 238.84 68.5728 239.627 68.3866 240.419C68.2049 241.008 68.1568 241.63 68.2456 242.239C68.3715 242.81 68.749 243.327 68.7893 243.908C68.8799 244.81 68.2507 245.607 67.9033 246.444C67.0174 248.58 67.9587 250.986 68.9101 253.101L71.6886 259.376L73.9688 264.524C74.6433 266.028 75.3229 267.582 75.9823 269.125C78.9539 276.155 81.3805 283.401 83.2407 290.799C83.3028 291.135 83.4312 291.455 83.6182 291.741C84.0008 292.243 84.7005 292.403 85.2693 292.714C86.9757 293.651 87.172 296.448 85.6115 297.611C85.9287 301.38 83.0947 305.024 81.635 308.513C78.2726 316.533 78.8816 325.585 77.7289 334.206L79.0326 333.449C79.1872 333.519 79.3299 333.612 79.4555 333.725C79.4253 333.885 79.39 334.053 79.3497 334.226C79.1734 334.959 78.892 335.663 78.5142 336.316C77.7541 337.615 76.5913 338.773 76.4152 340.266C76.3095 341.168 76.5863 342.071 76.5813 342.978C76.5813 343.063 76.5813 343.143 76.5813 343.229C76.4655 343.118 76.2893 343.128 76.0276 343.334C75.6178 343.762 75.334 344.295 75.2071 344.873C74.9806 345.519 74.7994 346.176 74.6182 346.832L73.9437 349.148C73.5992 350.544 73.143 351.91 72.5796 353.233C72.0976 354.119 71.6935 355.045 71.3715 356C71.1921 356.779 71.1226 357.578 71.1651 358.376C71.1519 359.14 71.2624 359.902 71.4923 360.632C71.7944 361.35 72.2437 361.998 72.8113 362.534C73.379 363.07 74.0527 363.482 74.7893 363.744C76.2637 364.26 77.8081 364.551 79.3699 364.606C79.7703 364.658 80.1762 364.646 80.5729 364.571C80.9977 364.45 81.3933 364.243 81.7357 363.965C83.8599 362.411 84.9572 359.554 85.1485 356.947C85.0947 356.41 84.9988 355.877 84.8615 355.354C84.9924 352.501 84.5746 349.634 84.7911 346.792C84.8364 347.118 84.8817 347.439 84.932 347.76L85.4354 350.953C85.4059 350.839 85.3468 350.735 85.2642 350.652C84.8916 351.834 84.8258 353.091 85.073 354.306C85.3239 355.515 85.6775 356.7 86.13 357.85L86.8146 359.754C86.9795 360.329 87.2566 360.866 87.63 361.333C88.229 361.99 89.1401 362.236 90.0159 362.446C91.8986 362.994 93.8368 363.33 95.7945 363.449C96.0563 363.479 96.3212 363.43 96.5546 363.308C96.6744 363.22 96.7887 363.125 96.8969 363.023C97.0708 362.898 97.2562 362.791 97.4506 362.702C98.2917 362.261 98.9272 361.511 99.2224 360.612C99.364 360.164 99.4081 359.691 99.3517 359.226C99.2952 358.76 99.1396 358.311 98.8952 357.91C98.6664 357.571 98.4051 357.256 98.115 356.968L94.672 353.334C94.1456 352.711 93.5843 352.119 92.9908 351.559C92.92 351.487 92.8326 351.433 92.7362 351.401C92.6398 351.37 92.5372 351.362 92.4371 351.379C91.5009 349.053 91.6217 346.336 91.7827 343.785C91.8331 343.023 92.2509 341.444 92.417 340.146C93.0811 339.923 93.6998 339.583 94.2442 339.143C94.7689 338.762 95.1414 338.208 95.2962 337.58C97.0328 328.748 99.8264 320.187 102.464 311.58C102.726 310.733 102.967 309.881 103.234 309.034C103.345 308.673 103.446 308.307 103.551 307.941C103.657 307.575 103.727 307.35 103.813 307.054C103.954 306.553 104.095 306.052 104.231 305.55C104.271 305.415 104.306 305.28 104.347 305.144C104.344 305.118 104.344 305.091 104.347 305.064C104.513 304.448 104.674 303.831 104.85 303.215C104.91 302.974 104.976 302.743 105.036 302.503C105.233 301.721 105.429 300.929 105.615 300.142C105.646 300.033 105.669 299.923 105.686 299.811C105.754 299.533 105.734 299.241 105.63 298.974C105.58 298.871 105.514 298.776 105.434 298.693C105.378 298.628 105.318 298.563 105.258 298.503C105.197 298.443 105.127 298.363 105.066 298.287C104.907 298.093 104.788 297.87 104.714 297.631C104.714 297.39 104.714 297.13 104.714 296.909C104.714 296.689 104.684 296.408 104.669 296.147C104.723 295.809 104.798 295.474 104.895 295.145C104.956 294.949 105.021 294.754 105.082 294.558C105.142 294.363 105.233 294.057 105.313 293.831C105.614 293.489 105.777 293.048 105.771 292.593C106.083 291.818 106.427 291.058 106.803 290.313C107.267 289.557 107.579 288.72 107.724 287.847C107.722 287.058 107.624 286.272 107.432 285.506C106.929 282.248 108.439 279.075 109.551 275.982C110.377 273.701 111.003 271.353 111.424 268.965C111.751 267.135 111.978 265.216 112.959 263.632C113.283 263.187 113.56 262.71 113.785 262.208C113.937 261.684 114.012 261.14 114.006 260.594C114.13 258.381 114.668 256.21 115.592 254.193C115.796 253.803 115.936 253.381 116.004 252.945C116.007 252.917 116.007 252.889 116.004 252.86V252.74L116.261 252.7C116.699 249.938 117.142 246.86 116.84 244.078C116.447 240.856 114.871 237.892 112.415 235.758H112.466C113.332 235.322 113.719 234.254 113.734 233.312C113.736 232.598 113.577 231.892 113.269 231.248C112.96 230.603 112.511 230.036 111.952 229.588C111.703 229.433 111.495 229.22 111.348 228.966C111.265 228.706 111.239 228.43 111.273 228.159C111.277 227.341 111.036 226.54 110.582 225.858C110.128 225.176 109.48 224.644 108.721 224.33C108.563 224.286 108.419 224.203 108.303 224.089C108.174 223.868 108.134 223.606 108.192 223.357C108.239 222.543 108.062 221.732 107.679 221.011C107.297 220.291 106.724 219.688 106.023 219.267C106.224 218.194 106.425 217.072 106.118 216.019C105.811 214.966 104.82 214.014 103.733 214.165C104.618 211.759 103.36 209.082 103.692 206.541C103.838 205.448 104.276 204.4 104.332 203.303C104.382 202.3 104.135 201.228 104.623 200.355C105.112 199.483 106.264 198.802 105.967 197.849C105.842 197.443 105.464 197.162 105.288 196.766C105.112 196.371 105.816 195.764 106.179 195.985C106.35 195.854 106.521 195.719 106.682 195.579C106.735 196.088 106.836 196.592 106.984 197.082C107.231 197.904 107.608 198.676 107.865 199.493C108.258 200.741 108.368 202.095 109.003 203.237C110.009 205.067 112.139 205.974 113.578 207.493C114.424 208.38 115.033 209.498 115.904 210.34C116.565 210.955 117.291 211.498 118.068 211.959L122.719 214.966C123.202 215.315 123.739 215.581 124.31 215.753C124.672 215.822 125.044 215.817 125.404 215.737C125.764 215.658 126.103 215.507 126.403 215.292C126.702 215.078 126.954 214.805 127.144 214.491C127.333 214.176 127.457 213.826 127.506 213.463C127.079 213.312 126.689 213.071 126.364 212.756C126.429 212.756 126.494 212.756 126.56 212.726C127.665 212.438 128.687 211.898 129.545 211.147C132.857 208.521 135.238 204.937 137.563 201.413C140 197.719 151.723 187.945 151.723 187.945V183.985C153.215 183.124 154.538 182.001 155.629 180.672C156.217 179.962 156.561 179.084 156.61 178.166C156.633 177.696 156.506 177.231 156.247 176.838C155.989 176.445 155.612 176.143 155.171 175.975ZM57.67 185.474C57.4452 186.914 57.1683 188.344 56.8395 189.764C56.4772 191.407 56.0133 193.026 55.4502 194.611L55.269 195.112C55.1029 194.802 54.9368 194.496 54.7656 194.18C54.3881 193.393 54.0811 192.576 53.7589 191.759L51.816 186.546C51.5643 185.87 51.3126 185.088 51.6901 184.466C51.9668 184.085 52.3529 183.797 52.7975 183.639C54.1636 183.015 55.5906 182.533 57.0559 182.2C57.5192 182.108 57.9765 181.987 58.4251 181.84C58.0639 183.026 57.8111 184.242 57.67 185.474ZM59.8194 178.957C59.7546 178.842 59.7206 178.711 59.7206 178.579C59.7206 178.447 59.7546 178.316 59.8194 178.201C59.9648 178.055 60.1353 177.936 60.3227 177.85L60.4687 177.749C60.2674 178.166 60.0409 178.566 59.8194 178.972V178.957ZM63.8463 173.288C63.2748 173.761 62.7552 174.291 62.2959 174.872C61.8031 175.521 61.3589 176.204 60.967 176.917C61.0264 176.64 61.0059 176.352 60.908 176.086C60.81 175.82 60.6385 175.587 60.4133 175.414C60.2351 175.316 60.0665 175.202 59.91 175.073C59.7418 174.85 59.6695 174.569 59.7092 174.292C59.7488 174.016 59.8971 173.767 60.1214 173.599C60.5846 173.283 61.126 173.099 61.6868 173.068L64.0073 172.727C63.9369 172.923 63.8916 173.113 63.8412 173.303L63.8463 173.288ZM85.5713 341.028C85.6122 340.335 85.5665 339.64 85.4354 338.958C85.7223 338.958 86.0092 338.958 86.2911 338.958C86.0545 339.625 85.8129 340.331 85.5713 341.028Z" fill="url(#paint15_linear)"/>
<path d="M83.2054 136.793C79.1785 137.44 74.6986 138.984 73.1382 142.743C71.9754 145.585 72.8764 148.783 73.1734 151.835C73.286 152.641 73.2571 153.461 73.0878 154.256C72.7556 155.545 71.8395 156.587 70.9536 157.585C69.7229 158.851 68.6896 160.294 67.8881 161.865C67.1633 163.469 66.9318 165.374 67.6818 166.978C67.9369 167.39 68.1079 167.848 68.1851 168.326C68.2355 169.369 67.1381 170.03 66.3328 170.697C63.3126 173.203 63.4384 177.714 63.4133 181.639C63.3669 189.642 61.5828 197.54 58.1833 204.791C59.4574 205.434 60.8963 205.679 62.3124 205.495C63.7284 205.311 65.0558 204.706 66.1213 203.759C65.7028 205.541 65.0988 207.274 64.3193 208.932C66.8764 210.165 69.962 208.14 71.2456 205.613C72.5291 203.087 72.6801 200.15 73.5912 197.468C74.5023 194.787 76.108 192.456 76.8177 189.754C77.0443 188.862 77.1852 187.91 77.7339 187.168C78.1962 186.631 78.7396 186.17 79.3446 185.799C81.9996 183.891 83.9899 181.205 85.0376 178.115C88.1685 178.802 91.3649 179.494 94.5562 179.203C97.7475 178.912 101.009 177.474 102.696 174.757C103.44 173.559 103.843 172.181 104.533 170.948C105.378 169.444 106.622 168.201 107.553 166.762C109.798 163.339 110.211 158.943 109.3 154.953C108.389 150.963 106.279 147.354 103.763 144.121C98.9404 137.886 90.8363 135.575 83.2054 136.793Z" fill="#303D5C"/>
<path d="M57.7908 186.927C57.5643 188.361 57.2874 189.794 56.9653 191.213C56.6 192.853 56.1361 194.47 55.576 196.055C55.2467 196.749 55.0962 197.514 55.1381 198.28C55.2374 198.749 55.4198 199.198 55.6767 199.603C57.5139 202.856 60.0005 205.999 60.2069 209.728C60.2573 210.656 60.2069 211.663 60.7103 212.43C62.1298 209.386 63.6969 206.419 65.4117 203.528C67.2036 200.521 69.1969 197.443 69.7104 193.964C69.9151 192.332 69.8931 190.679 69.6449 189.052C69.4083 187.223 68.9956 185.348 67.8781 183.884C66.66 182.301 63.3479 179.91 61.1683 180.406C58.6364 180.982 58.1129 184.887 57.7908 186.927Z" fill="#00CDAC"/>
<path d="M122.669 204.46C125.075 203.483 127.531 202.455 129.439 200.691C130.604 199.541 131.638 198.265 132.52 196.887L138.182 188.752C139.521 186.817 140.906 184.787 141.203 182.456C144.519 178.97 146.517 174.445 146.855 169.654C146.896 169.178 147.057 168.552 147.535 168.537C147.747 168.552 147.944 168.647 148.089 168.802C148.459 169.142 148.743 169.563 148.918 170.033C149.093 170.502 149.154 171.006 149.095 171.504C149.921 171.464 150.817 171.444 151.491 171.925C152.166 172.406 152.347 173.599 151.622 173.995C151.865 174.068 152.072 174.228 152.205 174.443C152.337 174.658 152.386 174.914 152.342 175.163C153.208 174.993 154.159 174.852 154.924 175.283C155.689 175.714 155.981 176.977 155.241 177.449C155.673 177.615 156.042 177.91 156.299 178.293C156.556 178.676 156.687 179.128 156.676 179.589C156.63 180.508 156.285 181.388 155.694 182.095C153.52 185.002 149.684 186.175 147.162 188.792C146.334 189.706 145.591 190.695 144.943 191.744L137.639 202.811C135.318 206.32 132.937 209.914 129.625 212.53C128.767 213.281 127.745 213.822 126.64 214.109C126.087 214.248 125.507 214.241 124.957 214.089C124.407 213.937 123.907 213.645 123.505 213.242C122.775 212.415 122.664 211.237 122.593 210.129C122.473 208.265 122.795 206.34 122.669 204.46Z" fill="#EE8E9E"/>
<path d="M98.2107 358.17C98.5019 358.458 98.7633 358.773 98.9909 359.113C99.2352 359.513 99.3907 359.961 99.4472 360.426C99.5036 360.891 99.4596 361.363 99.3181 361.809C99.0263 362.708 98.3918 363.457 97.5513 363.894C97.3547 363.983 97.1675 364.09 96.9925 364.215C96.8855 364.32 96.7711 364.417 96.6503 364.506C96.4152 364.623 96.1518 364.672 95.8902 364.646C93.9347 364.523 91.9987 364.187 90.1166 363.644C89.2509 363.428 88.3347 363.183 87.7307 362.531C87.3573 362.063 87.0802 361.527 86.9153 360.952L86.2307 359.053C85.7812 357.904 85.4293 356.721 85.1787 355.514C84.9289 354.301 84.9947 353.045 85.37 351.865C85.5397 352.076 85.6288 352.341 85.6216 352.612C85.8231 353.89 86.3269 355.103 87.0914 356.15C87.2512 356.413 87.4441 356.654 87.6653 356.867C88.1657 357.25 88.757 357.496 89.3817 357.584C90.5841 357.844 91.8068 358 93.0361 358.05C93.2063 358.073 93.3796 358.052 93.5395 357.99C93.7369 357.881 93.886 357.702 93.9573 357.489C94.1333 357.003 94.1333 356.471 93.9573 355.985C93.6251 355.058 92.714 354.451 92.2811 353.569C91.9539 352.917 92.4019 352.201 93.0663 352.752C93.6628 353.31 94.2258 353.903 94.7526 354.526L98.2107 358.17Z" fill="#303D5C"/>
<path d="M91.8833 345.003C91.687 348.065 91.5511 351.374 93.2324 353.945C93.8414 354.867 94.6518 355.644 95.3414 356.511C95.7369 356.945 95.999 357.483 96.0965 358.06C96.1921 359.183 95.1351 360.145 94.0226 360.356C92.9102 360.566 91.7726 360.215 90.6954 359.855C89.6761 359.602 88.7167 359.152 87.8716 358.531C86.4068 357.298 86.0192 355.243 85.7273 353.359L85.0427 348.978C84.5241 346.763 84.7432 344.441 85.6669 342.361L86.7944 339.073C86.8682 338.754 87.0449 338.467 87.2977 338.256C87.56 338.112 87.8617 338.056 88.1585 338.096C89.2357 338.151 91.9588 338.542 92.4823 339.68C92.9253 340.667 91.9589 343.825 91.8833 345.003Z" fill="#EE8E9E"/>
<path opacity="0.05" d="M91.8833 345.003C91.687 348.065 91.5511 351.374 93.2324 353.945C93.8414 354.867 94.6518 355.644 95.3414 356.511C95.7369 356.945 95.999 357.483 96.0965 358.06C96.1921 359.183 95.1351 360.145 94.0226 360.356C92.9102 360.566 91.7726 360.215 90.6954 359.855C89.6761 359.602 88.7167 359.152 87.8716 358.531C86.4068 357.298 86.0192 355.243 85.7273 353.359L85.0427 348.978C84.5241 346.763 84.7432 344.441 85.6669 342.361L86.7944 339.073C86.8682 338.754 87.0449 338.467 87.2977 338.256C87.56 338.112 87.8617 338.056 88.1585 338.096C89.2357 338.151 91.9588 338.542 92.4823 339.68C92.9253 340.667 91.9589 343.825 91.8833 345.003Z" fill="black"/>
<path d="M116.08 254.223C116.082 254.252 116.082 254.28 116.08 254.309C116.016 254.742 115.876 255.161 115.667 255.547C114.743 257.558 114.204 259.724 114.076 261.932C114.082 262.478 114.007 263.022 113.855 263.546C113.629 264.046 113.353 264.521 113.029 264.965C112.048 266.554 111.821 268.474 111.494 270.293C111.072 272.671 110.446 275.009 109.622 277.28C108.499 280.378 106.989 283.546 107.503 286.804C107.694 287.57 107.792 288.356 107.795 289.145C107.651 290.017 107.338 290.853 106.873 291.606C106.498 292.348 106.162 293.108 105.867 293.886C105.54 294.719 105.248 295.571 104.991 296.433C104.689 297.48 104.487 298.723 105.182 299.566C105.398 299.772 105.589 300.002 105.751 300.252C105.882 300.636 105.882 301.052 105.751 301.435C105.352 303.106 104.925 304.777 104.472 306.448C104.12 307.751 103.748 309.044 103.365 310.337C100.536 319.796 97.3247 329.159 95.432 338.848C95.1602 340.241 93.3632 341.239 91.9739 341.544C91.2743 341.693 90.5493 341.675 89.8581 341.491C89.1669 341.307 88.5293 340.963 87.9974 340.487C87.9018 340.401 87.8112 340.306 87.7256 340.216C86.2658 338.652 86.0494 336.251 86.1601 334.086C86.6635 324.116 91.6971 314.989 94.0931 305.3C94.9597 301.796 95.4823 298.217 95.6535 294.613C96.2122 282.584 96.4388 269.862 93.0209 258.299C92.3112 255.893 91.4706 253.176 92.7491 251.02C93.5545 249.657 95.0495 248.85 96.5294 248.269C99.5474 247.097 102.77 246.539 106.008 246.625C109.246 246.711 112.434 247.44 115.385 248.77C115.39 249.011 115.38 249.252 115.355 249.492C115.227 250.612 115.358 251.747 115.738 252.81C115.933 253.258 116.049 253.736 116.08 254.223Z" fill="url(#paint16_linear)"/>
<path d="M74.6936 348.086L74.0543 350.401C73.7138 351.794 73.2593 353.157 72.6952 354.476C72.2133 355.362 71.8091 356.288 71.4872 357.243C71.3077 358.022 71.2383 358.821 71.2808 359.619C71.2676 360.382 71.3781 361.142 71.608 361.87C71.9093 362.587 72.3578 363.234 72.9246 363.769C73.4915 364.305 74.1643 364.716 74.9 364.977C76.3741 365.494 77.9188 365.783 79.4805 365.834C79.8805 365.89 80.2869 365.88 80.6836 365.804C81.1084 365.683 81.5039 365.476 81.8463 365.198C83.9705 363.649 85.0628 360.792 85.2541 358.181C85.1992 357.571 85.0794 356.97 84.8967 356.386C84.7306 356.166 83.1249 357.068 83.8145 357.825C84.8212 358.937 81.8564 358.361 80.3463 358.266C79.683 358.209 79.025 358.102 78.3782 357.945L75.9318 357.444C75.1315 357.273 74.2104 356.998 73.9184 356.236C73.6265 355.474 74.2506 354.562 74.7338 353.82C76.0124 351.85 76.3446 349.439 76.6416 347.113C76.697 346.657 77.2708 343.695 76.0879 344.607C75.6818 345.038 75.3986 345.569 75.2674 346.146C75.051 346.772 74.8698 347.429 74.6936 348.086Z" fill="#303D5C"/>
<path opacity="0.05" d="M105.157 299.571C104.462 298.728 104.654 297.485 104.971 296.438C105.081 296.047 105.207 295.661 105.338 295.275L95.7341 292.037C95.6989 292.899 95.6586 293.751 95.6183 294.603C95.4509 298.209 94.9299 301.79 94.0629 305.295C91.6619 314.979 86.6233 324.106 86.13 334.071C86.0142 336.366 86.2608 338.933 87.9672 340.477C88.4981 340.953 89.1347 341.298 89.8249 341.483C90.5152 341.667 91.2395 341.687 91.9388 341.539C93.3331 341.234 95.125 340.231 95.4019 338.838C97.3046 329.149 100.501 319.79 103.335 310.322C104.217 307.385 105.013 304.424 105.721 301.44C105.852 301.058 105.852 300.644 105.721 300.262C105.563 300.009 105.374 299.776 105.157 299.571Z" fill="black"/>
<path d="M78.6199 337.58C77.8598 338.883 76.7021 340.036 76.5259 341.529C76.4202 342.427 76.697 343.329 76.692 344.236C76.6548 344.987 76.5212 345.73 76.2943 346.446C75.3581 349.811 74.2809 353.13 73.0628 356.401C72.8625 356.823 72.7741 357.289 72.8061 357.754C72.9269 358.521 73.6769 359.028 74.3916 359.333C76.6819 360.306 79.2591 360.241 81.7458 360.14C82.4689 360.17 83.1858 359.996 83.8146 359.639C84.7055 359.033 84.927 357.835 84.9824 356.762C85.1535 353.654 84.625 350.532 84.9824 347.444C85.1082 346.316 85.3448 345.208 85.521 344.091C85.7676 342.537 85.8934 340.903 85.38 339.414C84.9549 338.346 84.3601 337.352 83.6182 336.472C82.9637 335.518 82.1357 334.696 81.177 334.046C80.885 333.875 80.0545 333.344 79.7575 333.675C79.6065 333.845 79.6719 334.301 79.6518 334.512C79.6127 334.836 79.5556 335.157 79.4806 335.474C79.2967 336.214 79.0068 336.923 78.6199 337.58Z" fill="#EE8E9E"/>
<path opacity="0.05" d="M97.0731 258.103C96.6251 258.71 96.7157 259.552 96.8969 260.284C97.214 261.607 97.7476 262.875 98.1805 264.163C98.8889 266.476 99.4405 268.834 99.8315 271.221C100.234 273.376 101.09 275.777 100.743 277.947C103.368 282.923 105.094 288.32 105.842 293.892C106.038 295.32 102.852 297.165 102.912 298.603C103.033 301.47 105.328 301.701 103.637 303.987C103.551 304.102 104.271 306.663 104.175 306.774C103.486 307.601 102.61 308.277 101.87 309.034C100.916 310.111 100.099 311.301 99.4389 312.578C95.0596 320.457 88.7274 329.389 90.6804 338.186C90.7202 338.503 90.6614 338.824 90.512 339.106C90.3625 339.389 90.1297 339.619 89.8448 339.765C89.2667 340.042 88.634 340.188 87.9924 340.191H87.6904C86.2307 338.627 86.0142 336.226 86.125 334.061C86.6283 324.091 91.6619 314.964 94.0579 305.275C94.9245 301.771 95.4471 298.192 95.6184 294.588C96.1771 282.559 96.4036 269.837 92.9858 258.274C92.276 255.868 91.4354 253.151 92.714 250.996C93.5193 249.632 95.0143 248.825 96.4942 248.244C99.5123 247.073 102.735 246.514 105.973 246.6C109.211 246.686 112.399 247.415 115.35 248.745C115.355 248.986 115.345 249.227 115.32 249.467C115.192 250.587 115.323 251.722 115.702 252.785C115.913 253.24 116.041 253.729 116.08 254.229C116.08 254.229 116.251 252.289 116.246 252.319C112.345 252.875 108.228 255.417 104.291 255.993C102.25 256.21 100.24 256.65 98.2962 257.306C97.8226 257.455 97.3994 257.73 97.0731 258.103Z" fill="black"/>
<path d="M69.8966 236.76C69.3698 238.431 68.905 240.118 68.5023 241.823C68.3231 242.412 68.275 243.033 68.3614 243.642C68.4872 244.214 68.8647 244.725 68.905 245.306C68.9956 246.209 68.3664 247.006 68.0191 247.843C67.1332 249.973 68.0795 252.379 69.0258 254.489L71.8044 260.755L74.0896 265.897C74.7692 267.426 75.4437 268.955 76.1031 270.494C79.073 277.515 81.4979 284.752 83.3565 292.142C83.4191 292.477 83.5455 292.797 83.729 293.084C84.1166 293.586 84.8162 293.746 85.38 294.057C87.0914 294.989 87.2877 297.786 85.7223 298.949C86.0444 302.713 83.2055 306.347 81.7508 309.836C78.3883 317.856 78.9974 326.878 77.8447 335.499L79.1484 334.737C80.4018 335.309 80.3565 337.078 81.031 338.276C82.0377 340.076 84.5142 340.326 86.5679 340.191C87.2079 340.188 87.8391 340.042 88.4153 339.765C88.7006 339.619 88.9339 339.389 89.0834 339.107C89.2329 338.824 89.2914 338.503 89.2508 338.186C87.3028 329.389 93.6301 320.457 98.0143 312.578C98.6728 311.301 99.4878 310.111 100.441 309.034C101.185 308.252 102.056 307.595 102.751 306.773C104.684 304.463 104.93 301.204 104.8 298.197C104.493 291.125 102.619 284.208 99.313 277.942C99.6653 275.777 98.8096 273.376 98.4069 271.22C98.0145 268.834 97.4578 266.478 96.7408 264.168C96.3079 262.87 95.7794 261.607 95.4573 260.283C95.2811 259.552 95.1854 258.709 95.6334 258.103C95.9644 257.729 96.393 257.453 96.8717 257.306C98.8154 256.65 100.826 256.21 102.867 255.993L116.372 254.063C116.805 251.301 117.248 248.224 116.946 245.447C116.621 242.873 115.545 240.452 113.851 238.482C112.158 236.512 109.92 235.08 107.417 234.364C106.828 234.209 106.139 234.109 105.655 234.48C93.7381 232.15 81.418 232.936 69.8966 236.76Z" fill="url(#paint17_linear)"/>
<path d="M82.1434 164.126C82.3402 165.439 82.135 166.78 81.5544 167.975C81.1623 168.628 80.6499 169.201 80.0443 169.664C78.7385 170.71 77.2203 171.461 75.5946 171.865C74.6382 172.105 73.5812 172.266 72.9319 173.023C71.9855 174.161 72.6198 175.885 73.4352 177.128C74.8346 179.293 76.7775 181.253 79.2692 181.93C81.2826 182.471 83.3816 182.14 85.4152 182.491C86.89 182.747 88.2793 183.353 89.734 183.699C91.8041 184.171 93.9596 184.12 96.005 183.552C98.0504 182.984 99.9211 181.916 101.447 180.446C99.2828 178.792 97.0378 177.033 95.9103 174.556C95.1167 172.784 94.9672 170.792 95.4874 168.923C95.9908 167.088 97.1737 165.304 96.8113 163.409C96.4489 161.514 94.5965 160.246 92.7844 159.615C91.1207 159.111 89.411 158.774 87.6803 158.607C86.729 158.477 80.6886 157.148 80.3111 157.805C80.0997 158.176 81.3531 160.371 81.5091 160.858C81.8771 161.911 82.0907 163.012 82.1434 164.126Z" fill="#EE8E9E"/>
<path d="M89.7592 168.517C96.5257 168.517 102.011 163.054 102.011 156.316C102.011 149.578 96.5257 144.116 89.7592 144.116C82.9928 144.116 77.5074 149.578 77.5074 156.316C77.5074 163.054 82.9928 168.517 89.7592 168.517Z" fill="#EE8E9E"/>
<path d="M83.2859 176.481L91.5964 177.875C93.6391 178.289 95.7183 178.497 97.8028 178.496C98.941 178.384 100.088 178.384 101.226 178.496C102.011 178.627 102.761 178.922 103.546 179.023C104.518 179.143 105.504 178.958 106.476 179.083C108.278 179.313 109.763 180.556 111.132 181.744C112.738 183.138 114.464 184.752 114.59 186.882C114.612 187.124 114.578 187.368 114.489 187.594C114.331 187.849 114.12 188.068 113.87 188.235C112.36 189.484 111.489 191.343 110.402 192.987C109.283 194.683 107.888 196.183 106.274 197.423C105.912 197.193 105.222 197.799 105.378 198.2C105.534 198.601 105.932 198.877 106.063 199.283C106.36 200.22 105.197 200.912 104.714 201.789C104.231 202.666 104.477 203.734 104.427 204.731C104.367 205.829 103.924 206.877 103.788 207.964C103.451 210.506 104.714 213.182 103.823 215.583C104.915 215.448 105.902 216.385 106.209 217.433C106.516 218.48 106.32 219.608 106.113 220.681C106.815 221.099 107.388 221.7 107.771 222.419C108.155 223.138 108.333 223.948 108.288 224.761C108.245 224.857 108.224 224.961 108.227 225.066C108.231 225.171 108.257 225.274 108.306 225.367C108.354 225.46 108.423 225.542 108.507 225.605C108.591 225.668 108.688 225.712 108.791 225.733C109.549 226.048 110.196 226.579 110.65 227.26C111.104 227.94 111.346 228.74 111.343 229.558C111.31 229.831 111.335 230.108 111.419 230.37C111.565 230.62 111.771 230.832 112.018 230.986C112.576 231.433 113.026 232 113.335 232.643C113.643 233.287 113.802 233.992 113.8 234.705C113.8 235.673 113.397 236.71 112.536 237.146C110.774 238.039 108.887 238.384 106.954 238.8C105.173 239.22 103.37 239.539 101.553 239.758C99.8787 239.894 98.1987 239.946 96.5193 239.913L85.4051 239.868C82.2792 239.868 79.1533 239.868 76.0375 239.633C73.1281 239.437 70.1533 239.076 67.3344 239.838C66.9821 239.242 67.5459 238.555 67.8932 237.958C68.2913 237.145 68.5077 236.256 68.5274 235.352L69.2321 227.979C69.3662 226.965 69.3848 225.939 69.2875 224.921C69.1365 223.833 68.7237 222.806 68.5123 221.728C68.1096 219.663 68.4771 217.528 68.3814 215.423C68.2377 213.558 67.9123 211.711 67.4099 209.909L65.2052 200.887C64.8529 199.438 64.6666 197.754 64.123 196.376C62.4284 192.031 60.6515 187.734 58.7924 183.484C58.7251 183.297 58.6993 183.099 58.7167 182.901C58.7341 182.704 58.7943 182.513 58.8931 182.341L60.7304 179.063C61.2219 178.131 61.7839 177.238 62.4116 176.391C63.9633 174.437 66.1607 173.094 68.613 172.602C71.0686 172.124 73.6147 172.499 75.8261 173.664C76.6818 174.121 77.4771 174.667 78.3429 175.118C79.8278 175.82 81.6399 176.592 83.2859 176.481Z" fill="url(#paint18_linear)"/>
<path d="M112.773 184.516L115.667 188.361C115.933 188.687 116.16 189.044 116.342 189.423C116.775 190.426 116.538 191.609 116.769 192.686C116.95 193.376 117.237 194.034 117.62 194.636C118.708 196.541 119.938 198.363 121.3 200.085C121.929 200.959 122.703 201.72 123.59 202.335C124.034 202.641 124.539 202.848 125.071 202.942C125.602 203.036 126.148 203.016 126.671 202.882C126.233 203.051 125.875 203.376 125.664 203.794C124.561 205.969 124.481 208.546 124.949 210.931C125.081 211.75 125.353 212.54 125.754 213.267C126.156 214.001 126.811 214.565 127.597 214.856C127.547 215.22 127.424 215.569 127.234 215.884C127.044 216.198 126.792 216.47 126.493 216.684C126.194 216.898 125.854 217.049 125.494 217.128C125.134 217.207 124.762 217.211 124.4 217.142C123.831 216.972 123.294 216.706 122.815 216.355L118.164 213.347C117.387 212.885 116.662 212.342 115.999 211.728C115.129 210.866 114.524 209.774 113.679 208.886C112.239 207.383 110.125 206.46 109.108 204.636C108.469 203.493 108.358 202.13 107.966 200.897C107.709 200.08 107.331 199.308 107.085 198.486C106.32 195.949 106.873 193.168 108.036 190.787C109.199 188.406 111.051 186.541 112.773 184.516Z" fill="#00CDAC"/>
<path d="M101.865 149.359C100.731 147.608 99.268 146.092 97.5562 144.893C95.2659 143.194 92.6333 141.781 89.7793 141.62C88.586 141.559 87.3934 141.753 86.2809 142.187C86.2255 138.743 85.3698 136.447 83.2054 136.793C79.1785 137.44 74.6986 138.984 73.1382 142.743C71.9754 145.585 72.8764 148.783 73.1734 151.835C73.286 152.641 73.2571 153.46 73.0878 154.256C72.7556 155.545 71.8395 156.587 70.9536 157.585C69.7229 158.851 68.6896 160.294 67.8881 161.865C67.1633 163.469 66.9318 165.374 67.6818 166.978C67.9369 167.39 68.1079 167.848 68.1851 168.326C68.2355 169.369 67.1381 170.03 66.3328 170.697C63.3126 173.203 63.4384 177.714 63.4133 181.639C63.3669 189.642 61.5828 197.54 58.1833 204.791C59.4574 205.434 60.8963 205.679 62.3124 205.495C63.7284 205.311 65.0558 204.706 66.1213 203.759C65.7027 205.541 65.0988 207.274 64.3193 208.932C66.8764 210.165 69.962 208.14 71.2456 205.613C72.5291 203.087 72.6801 200.15 73.5912 197.468C74.5023 194.787 76.108 192.456 76.8177 189.754C77.0443 188.862 77.1852 187.91 77.7339 187.168C78.1961 186.631 78.7396 186.169 79.3446 185.799C81.9822 183.915 78.0963 169.634 79.1282 166.567C80.6382 166.903 83.4822 159.549 85.088 152.031C86.2078 152.415 87.4023 152.534 88.5762 152.377C88.9844 152.289 89.4031 152.26 89.8195 152.292C90.2062 152.371 90.5748 152.52 90.9068 152.733C92.095 153.459 93.3368 154.094 94.6216 154.632C97.2793 155.635 100.199 155.489 103.033 155.349C103.417 153.277 102.999 151.138 101.865 149.359Z" fill="#303D5C"/>
<g opacity="0.1">
<path opacity="0.1" d="M59.623 204.791C63.0328 197.549 64.8256 189.657 64.878 181.659C64.9032 177.75 64.7723 173.208 67.7975 170.717C68.6029 170.05 69.7002 169.389 69.6499 168.346C69.5707 167.869 69.3998 167.411 69.1465 166.998C68.3965 165.404 68.6432 163.489 69.3479 161.885C70.1495 160.313 71.1846 158.87 72.4184 157.605C73.2992 156.602 74.2204 155.565 74.5476 154.277C74.7163 153.481 74.7469 152.662 74.6382 151.856C74.3362 148.803 73.4402 145.605 74.603 142.763C76.113 139.124 80.3362 137.565 84.2624 136.884C83.921 136.775 83.5582 136.751 83.2054 136.813C79.1785 137.46 74.6986 139.004 73.1382 142.763C71.9754 145.605 72.8764 148.803 73.1734 151.856C73.286 152.661 73.2571 153.481 73.0878 154.277C72.7556 155.565 71.8395 156.607 70.9536 157.605C69.7229 158.871 68.6896 160.314 67.8881 161.885C67.1633 163.489 66.9318 165.394 67.6818 166.998C67.9369 167.41 68.1079 167.868 68.1851 168.346C68.2355 169.389 67.1381 170.05 66.3327 170.717C63.3126 173.223 63.4384 177.735 63.4133 181.659C63.364 189.655 61.5799 197.546 58.1833 204.791C59.3809 205.408 60.7339 205.66 62.0743 205.518C61.2176 205.436 60.3851 205.189 59.623 204.791Z" fill="black"/>
<path opacity="0.1" d="M65.759 208.912C66.5333 207.254 67.1322 205.52 67.5459 203.739C67.029 204.209 66.4414 204.597 65.8043 204.887C65.4115 206.262 64.9065 207.603 64.2942 208.897C65.0305 209.245 65.8594 209.351 66.66 209.197C66.3488 209.14 66.046 209.044 65.759 208.912Z" fill="black"/>
<path opacity="0.1" d="M87.7205 142.187C88.4692 141.897 89.2557 141.714 90.0561 141.645H89.7793C89.0858 141.61 88.3907 141.662 87.7104 141.801C87.7155 141.911 87.7205 142.046 87.7205 142.187Z" fill="black"/>
<path opacity="0.1" d="M96.0612 154.617C94.778 154.079 93.5379 153.444 92.3515 152.718C92.0177 152.505 91.6474 152.356 91.2592 152.277C90.8786 152.242 90.495 152.266 90.1216 152.347C90.3944 152.446 90.6572 152.57 90.9068 152.718C92.095 153.444 93.3368 154.079 94.6216 154.617C96.6223 155.275 98.7302 155.547 100.833 155.419C99.2087 155.419 97.5958 155.148 96.0612 154.617Z" fill="black"/>
<path opacity="0.1" d="M86.5276 152.016C86.5276 152.126 86.4823 152.236 86.4572 152.347C87.0603 152.436 87.6721 152.453 88.2793 152.397C87.683 152.335 87.0955 152.207 86.5276 152.016Z" fill="black"/>
</g>
<path d="M61.0274 208.596C61.0974 209.241 61.0256 209.895 60.817 210.51C60.6084 211.125 60.268 211.688 59.8193 212.16C59.3091 212.65 58.7352 213.069 58.1129 213.408C57.5126 213.817 56.8219 214.077 56.0995 214.165C55.1257 214.133 54.2005 213.733 53.5122 213.047C51.378 211.182 50.3108 208.42 49.3242 205.769C48.0205 202.26 46.7219 198.716 46.1631 195.012C45.5641 191.042 45.8209 186.932 44.6782 183.078C45.6849 181.073 46.3393 178.837 47.492 176.892C48.2235 175.733 48.8711 174.524 49.4299 173.273C50.5003 170.611 50.6211 167.663 49.7722 164.923C49.9741 164.792 50.2126 164.728 50.4532 164.741C50.6938 164.753 50.9242 164.842 51.1112 164.993C51.477 165.306 51.7546 165.708 51.9165 166.161C52.5812 167.707 52.8577 169.391 52.7219 171.068C52.6358 171.471 52.6835 171.892 52.8578 172.266C53.0138 172.458 53.2148 172.608 53.443 172.705C53.6712 172.801 53.9197 172.839 54.1666 172.817C55.1929 172.767 56.2082 172.583 57.1867 172.271C60.2276 171.498 63.377 171.239 66.5039 171.504C67.134 171.523 67.7531 171.673 68.3211 171.945C68.6018 172.085 68.8381 172.299 69.0035 172.565C69.1688 172.83 69.2567 173.136 69.2573 173.449L61.8076 174.537C61.2468 174.568 60.7053 174.752 60.2421 175.068C60.0193 175.235 59.872 175.484 59.8324 175.759C59.7928 176.034 59.8641 176.314 60.0307 176.537C60.1881 176.665 60.3566 176.779 60.5341 176.877C60.7251 177.021 60.8789 177.209 60.983 177.423C61.087 177.638 61.1381 177.875 61.1322 178.113C61.1263 178.352 61.0635 178.585 60.949 178.795C60.8345 179.005 60.6716 179.184 60.4737 179.318C60.2862 179.405 60.1158 179.523 59.9703 179.669C59.6683 180.075 60.071 180.612 60.2019 181.103C60.2583 181.465 60.2029 181.836 60.0429 182.166C59.8829 182.497 59.6259 182.771 59.3059 182.952C58.6598 183.305 57.9559 183.541 57.227 183.649C55.7642 183.985 54.3392 184.467 52.9736 185.088C52.529 185.246 52.1429 185.534 51.8662 185.915C51.4988 186.536 51.7404 187.318 51.9921 187.995L53.935 193.198C54.237 194.015 54.5441 194.832 54.9417 195.619C55.4451 196.621 56.0441 197.594 56.5525 198.626C57.0609 199.659 57.3931 200.556 57.7656 201.538C58.7371 204.19 60.6952 205.794 61.0274 208.596Z" fill="#EE8E9E"/>
<path d="M151.471 174.842H128.251V197.228H151.471V174.842Z" fill="url(#paint19_linear)"/>
<path d="M151.073 175.228H128.654V196.842H151.073V175.228Z" fill="#7CFCFF"/>
<path d="M147.188 173.524C146.773 173.831 146.474 174.266 146.337 174.762C146.305 174.864 146.307 174.974 146.342 175.075C146.378 175.176 146.445 175.263 146.533 175.323C146.645 175.359 146.764 175.359 146.875 175.323C147.433 175.225 147.954 174.981 148.386 174.617C148.214 174.707 148.062 174.83 147.938 174.978C147.876 175.052 147.838 175.143 147.827 175.239C147.816 175.335 147.834 175.432 147.877 175.519C147.939 175.594 148.016 175.655 148.102 175.699C148.189 175.743 148.284 175.768 148.381 175.775C149.099 175.904 149.837 175.87 150.54 175.674C150.212 175.796 149.909 175.974 149.644 176.201C149.512 176.316 149.407 176.459 149.337 176.619C149.266 176.779 149.232 176.953 149.236 177.128C149.237 177.194 149.251 177.258 149.279 177.318C149.307 177.378 149.347 177.431 149.397 177.474C149.47 177.52 149.553 177.549 149.639 177.559C150.305 177.675 150.986 177.675 151.652 177.559C151.824 177.552 151.991 177.503 152.139 177.415C152.287 177.328 152.41 177.205 152.498 177.058C152.532 176.892 152.532 176.72 152.499 176.554C152.465 176.388 152.398 176.23 152.302 176.09C151.945 175.325 151.772 174.488 151.798 173.644C151.82 173.474 151.796 173.301 151.728 173.143C151.617 172.99 151.46 172.876 151.28 172.817C150.57 172.506 149.604 172.075 148.813 172.316C148.197 172.608 147.644 173.019 147.188 173.524Z" fill="#EE8E9E"/>
</g>
<defs>
<linearGradient id="paint0_linear" x1="-0.00146484" y1="0.00341797" x2="432.611" y2="626.869" gradientUnits="userSpaceOnUse">
<stop stop-color="#00CDAC"/>
<stop offset="1" stop-color="#02AAB0"/>
</linearGradient>
<linearGradient id="paint1_linear" x1="212.347" y1="165.65" x2="212.347" y2="143.264" gradientUnits="userSpaceOnUse">
<stop stop-color="#808080" stop-opacity="0.25"/>
<stop offset="0.54" stop-color="#808080" stop-opacity="0.12"/>
<stop offset="1" stop-color="#808080" stop-opacity="0.1"/>
</linearGradient>
<linearGradient id="paint2_linear" x1="12251" y1="7319.63" x2="12251" y2="6319.9" gradientUnits="userSpaceOnUse">
<stop stop-color="#808080" stop-opacity="0.25"/>
<stop offset="0.54" stop-color="#808080" stop-opacity="0.12"/>
<stop offset="1" stop-color="#808080" stop-opacity="0.1"/>
</linearGradient>
<linearGradient id="paint3_linear" x1="16592.4" y1="10798.4" x2="16592.4" y2="9798.66" gradientUnits="userSpaceOnUse">
<stop stop-color="#808080" stop-opacity="0.25"/>
<stop offset="0.54" stop-color="#808080" stop-opacity="0.12"/>
<stop offset="1" stop-color="#808080" stop-opacity="0.1"/>
</linearGradient>
<linearGradient id="paint4_linear" x1="6954.28" y1="5719.62" x2="6954.28" y2="4719.9" gradientUnits="userSpaceOnUse">
<stop stop-color="#808080" stop-opacity="0.25"/>
<stop offset="0.54" stop-color="#808080" stop-opacity="0.12"/>
<stop offset="1" stop-color="#808080" stop-opacity="0.1"/>
</linearGradient>
<linearGradient id="paint5_linear" x1="9128.75" y1="7184.37" x2="9128.75" y2="6184.64" gradientUnits="userSpaceOnUse">
<stop stop-color="#808080" stop-opacity="0.25"/>
<stop offset="0.54" stop-color="#808080" stop-opacity="0.12"/>
<stop offset="1" stop-color="#808080" stop-opacity="0.1"/>
</linearGradient>
<linearGradient id="paint6_linear" x1="182.73" y1="135.836" x2="208.698" y2="163.297" gradientUnits="userSpaceOnUse">
<stop stop-color="#FE7145"/>
<stop offset="1" stop-color="#FF4D00"/>
</linearGradient>
<linearGradient id="paint7_linear" x1="17872.4" y1="10791.1" x2="17872.4" y2="9791.33" gradientUnits="userSpaceOnUse">
<stop stop-color="#808080" stop-opacity="0.25"/>
<stop offset="0.54" stop-color="#808080" stop-opacity="0.12"/>
<stop offset="1" stop-color="#808080" stop-opacity="0.1"/>
</linearGradient>
<linearGradient id="paint8_linear" x1="19794" y1="5733.13" x2="19794" y2="4733.4" gradientUnits="userSpaceOnUse">
<stop stop-color="#808080" stop-opacity="0.25"/>
<stop offset="0.54" stop-color="#808080" stop-opacity="0.12"/>
<stop offset="1" stop-color="#808080" stop-opacity="0.1"/>
</linearGradient>
<linearGradient id="paint9_linear" x1="19675.4" y1="8983.02" x2="19675.4" y2="7983.29" gradientUnits="userSpaceOnUse">
<stop stop-color="#808080" stop-opacity="0.25"/>
<stop offset="0.54" stop-color="#808080" stop-opacity="0.12"/>
<stop offset="1" stop-color="#808080" stop-opacity="0.1"/>
</linearGradient>
<linearGradient id="paint10_linear" x1="20505.8" y1="9211.89" x2="20505.8" y2="8212.16" gradientUnits="userSpaceOnUse">
<stop stop-color="#808080" stop-opacity="0.25"/>
<stop offset="0.54" stop-color="#808080" stop-opacity="0.12"/>
<stop offset="1" stop-color="#808080" stop-opacity="0.1"/>
</linearGradient>
<linearGradient id="paint11_linear" x1="17004.9" y1="10434.3" x2="17004.9" y2="9434.52" gradientUnits="userSpaceOnUse">
<stop stop-color="#808080" stop-opacity="0.25"/>
<stop offset="0.54" stop-color="#808080" stop-opacity="0.12"/>
<stop offset="1" stop-color="#808080" stop-opacity="0.1"/>
</linearGradient>
<linearGradient id="paint12_linear" x1="349.845" y1="207.012" x2="375.813" y2="234.473" gradientUnits="userSpaceOnUse">
<stop stop-color="#FE7145"/>
<stop offset="1" stop-color="#FF4D00"/>
</linearGradient>
<linearGradient id="paint13_linear" x1="17123.5" y1="7344.58" x2="17123.5" y2="6344.85" gradientUnits="userSpaceOnUse">
<stop stop-color="#808080" stop-opacity="0.25"/>
<stop offset="0.54" stop-color="#808080" stop-opacity="0.12"/>
<stop offset="1" stop-color="#808080" stop-opacity="0.1"/>
</linearGradient>
<linearGradient id="paint14_linear" x1="352.362" y1="139.344" x2="378.33" y2="166.806" gradientUnits="userSpaceOnUse">
<stop stop-color="#FE7145"/>
<stop offset="1" stop-color="#FF4D00"/>
</linearGradient>
<linearGradient id="paint15_linear" x1="13744.3" y1="129845" x2="38690.1" y2="129845" gradientUnits="userSpaceOnUse">
<stop stop-color="#808080" stop-opacity="0.25"/>
<stop offset="0.54" stop-color="#808080" stop-opacity="0.12"/>
<stop offset="1" stop-color="#808080" stop-opacity="0.1"/>
</linearGradient>
<linearGradient id="paint16_linear" x1="86.1354" y1="246.616" x2="152.737" y2="268.013" gradientUnits="userSpaceOnUse">
<stop stop-color="#E9B395"/>
<stop offset="1" stop-color="#D3936F"/>
</linearGradient>
<linearGradient id="paint17_linear" x1="67.6656" y1="233.169" x2="166.882" y2="279.825" gradientUnits="userSpaceOnUse">
<stop stop-color="#E9B395"/>
<stop offset="1" stop-color="#D3936F"/>
</linearGradient>
<linearGradient id="paint18_linear" x1="58.7114" y1="172.399" x2="138.807" y2="239.981" gradientUnits="userSpaceOnUse">
<stop stop-color="#00CDAC"/>
<stop offset="1" stop-color="#02AAB0"/>
</linearGradient>
<linearGradient id="paint19_linear" x1="6580.17" y1="8983.02" x2="6580.17" y2="7983.29" gradientUnits="userSpaceOnUse">
<stop stop-color="#808080" stop-opacity="0.25"/>
<stop offset="0.54" stop-color="#808080" stop-opacity="0.12"/>
<stop offset="1" stop-color="#808080" stop-opacity="0.1"/>
</linearGradient>
<clipPath id="clip0">
<rect width="570" height="384.516" fill="white"/>
</clipPath>
</defs>
</svg>
