<svg width="480" height="372" viewBox="0 0 480 372" fill="none" xmlns="http://www.w3.org/2000/svg">
<g clip-path="url(#clip0)">
<path d="M433.376 177.713L426.227 209.869L420.424 235.956L415.798 256.761L409.998 282.848L391.045 368.073L156.194 259.552L138.931 251.574L117.08 241.475L99.8104 233.497L79.04 223.898L90.8151 206.767L100.607 192.521L112.994 174.498L122.783 160.262L232.939 0L349.632 103.464L370.412 121.888L386.981 136.579L407.765 155.003L433.376 177.713Z" fill="#F2F2F2"/>
<path d="M92.0079 272.317C76.3037 263.563 66.5273 251.61 62.9501 236.792C60.2939 225.791 61.0572 213.41 65.2184 199.996C68.3031 190.105 72.9282 180.763 78.9231 172.313C110.727 127.296 113.598 97.9621 110.405 81.2814C106.905 62.9914 95.5333 55.3954 95.4188 55.3208L95.9097 54.5659C96.0271 54.6422 107.698 62.4147 111.283 81.0758C113.349 91.834 112.377 104.101 108.393 117.536C103.436 134.257 93.7678 152.862 79.6587 172.833C73.7184 181.205 69.1354 190.462 66.0784 200.262C59.2536 222.264 58.2881 252.488 92.4463 271.531L92.0079 272.317Z" fill="#2F2E41"/>
<path d="M99.5593 272.317C115.264 263.563 125.04 251.61 128.617 236.792C131.273 225.791 130.51 213.41 126.349 199.996C123.264 190.105 118.639 180.763 112.644 172.313C80.8402 127.296 77.9697 97.9621 81.1621 81.2814C84.6622 62.9914 96.0339 55.3954 96.1485 55.3208L95.6576 54.5659C95.5402 54.6422 83.8688 62.4147 80.2844 81.0758C78.2182 91.834 79.1903 104.101 83.1738 117.536C88.1317 134.257 97.7995 152.862 111.909 172.833C117.849 181.205 122.432 190.462 125.489 200.262C132.314 222.264 133.279 252.488 99.121 271.531L99.5593 272.317Z" fill="#2F2E41"/>
<path d="M441.841 234.497C426.137 225.743 416.36 213.79 412.783 198.973C410.127 187.971 410.89 175.591 415.051 162.176C418.136 152.285 422.761 142.943 428.756 134.493C460.56 89.4758 463.431 60.1423 460.238 43.4615C456.738 25.1716 445.366 17.5756 445.252 17.501L445.743 16.7461C445.86 16.8224 457.531 24.5949 461.116 43.256C463.182 54.0142 462.21 66.2814 458.226 79.7166C453.269 96.4374 443.601 115.042 429.492 135.013C423.551 143.386 418.968 152.642 415.911 162.442C409.087 184.444 408.121 214.668 442.279 233.711L441.841 234.497Z" fill="#2F2E41"/>
<path d="M449.393 234.497C465.098 225.743 474.874 213.79 478.451 198.973C481.107 187.971 480.344 175.591 476.183 162.176C473.098 152.285 468.473 142.943 462.478 134.493C430.674 89.4758 427.804 60.1423 430.996 43.4615C434.496 25.1716 445.868 17.5756 445.982 17.501L445.492 16.7461C445.374 16.8224 433.703 24.5949 430.118 43.256C428.052 54.0142 429.024 66.2814 433.008 79.7166C437.966 96.4374 447.633 115.042 461.743 135.013C467.683 143.386 472.266 152.642 475.323 162.442C482.148 184.444 483.113 214.668 448.955 233.711L449.393 234.497Z" fill="#2F2E41"/>
<path d="M210.628 135.046C198.828 115.109 175.484 114.18 175.484 114.18C175.484 114.18 152.737 111.271 138.145 141.635C124.543 169.938 105.772 197.264 135.123 203.889L140.424 187.389L143.707 205.118C147.886 205.418 152.079 205.49 156.265 205.332C187.697 204.318 217.632 205.629 216.668 194.35C215.387 179.356 221.981 154.23 210.628 135.046Z" fill="#2F2E41"/>
<path d="M162.196 176.773C166.262 185.767 168.826 196.487 170.357 208.395L202.999 206.355C195.494 195.72 193.002 183.515 195.858 169.633L162.196 176.773Z" fill="#FFB8B8"/>
<path opacity="0.2" d="M162.196 176.773C166.262 185.767 168.826 196.487 170.357 208.395L202.999 206.355C195.494 195.72 193.002 183.515 195.858 169.633L162.196 176.773Z" fill="black"/>
<path d="M10.7481 348.008C10.7481 348.008 -6.14602 357.057 2.42687 364.783C10.9998 372.509 22.3241 354.556 22.3241 354.556L10.7481 348.008Z" fill="#FFB8B8"/>
<path d="M217.28 321.62L217.016 333.982L216.453 360.695V360.699L216.289 368.435H108.254L112.645 344.054L112.649 344.036L116.581 322.215L118.335 312.442V312.438L207.08 300.198L217.28 321.62Z" fill="#2F2E41"/>
<path d="M217.28 321.621L217.015 333.984C185.617 333.178 136.951 325.599 116.58 322.212L118.335 312.44L207.079 300.199L217.28 321.621Z" fill="#3F3D56"/>
<path d="M178.007 185.443C192.091 185.443 203.509 174.026 203.509 159.942C203.509 145.858 192.091 134.441 178.007 134.441C163.923 134.441 152.506 145.858 152.506 159.942C152.506 174.026 163.923 185.443 178.007 185.443Z" fill="#FFB8B8"/>
<path d="M226.97 335.391C226.97 335.391 230.03 362.933 211.669 360.893L208.609 333.351L192.288 317.03L146.385 316.01L112.724 347.632C112.724 347.632 111.703 314.99 115.784 311.93C119.864 308.87 129.044 301.73 129.044 301.73V296.629L101.503 240.526C101.503 240.526 117.824 206.864 131.085 205.844L148.425 204.824C148.425 204.824 154.546 201.764 154.546 200.744C154.546 199.724 153.526 191.564 158.626 193.604C158.626 193.604 159.085 183.138 164.461 186.331C164.461 186.331 181.384 199.591 198.561 186.912C198.561 186.912 206.569 185.443 205.549 189.523C204.529 193.604 205.549 196.664 207.589 196.664C209.629 196.664 218.809 199.724 218.809 201.764C218.809 202.203 219.472 206.426 220.513 212.781V212.791C224.297 235.956 233.09 287.449 233.09 287.449C233.09 287.449 242.271 300.71 226.97 335.391Z" fill="#00CDAC"/>
<path d="M108.644 235.426L101.503 240.526L36.22 324.171L1.53809 351.712C1.53809 351.712 20.9191 348.652 16.8389 364.973L136.185 296.629L108.644 235.426Z" fill="#00CDAC"/>
<path d="M220.513 212.781V212.791C219.157 220.768 174.948 219.105 168.827 219.105C162.707 219.105 157.607 218.085 151.486 214.005C145.366 209.925 148.426 204.824 148.426 204.824C148.426 204.824 153.637 200.855 153.637 199.835C153.637 198.815 152.617 190.655 157.718 192.695C157.718 192.695 158.177 182.229 163.552 185.422C163.552 185.422 181.384 199.592 198.562 186.912C198.562 186.912 206.569 185.443 205.549 189.524C204.529 193.604 205.549 196.664 207.589 196.664C209.63 196.664 218.81 199.724 218.81 201.764C218.81 202.203 219.473 206.426 220.513 212.781Z" fill="#3F3D56"/>
<path d="M215.24 174.733C215.24 174.733 207.079 157.392 198.919 165.552C190.758 173.713 208.099 185.954 208.099 185.954L215.24 174.733Z" fill="#FFB8B8"/>
<path d="M215.239 170.653C215.239 170.653 202.638 186.577 198.738 187.795C198.738 187.795 210.139 232.876 224.42 245.117L232.58 286.939C232.58 286.939 267.262 272.658 259.102 249.197C259.02 248.962 258.939 248.729 258.858 248.497C252.044 228.959 242.641 210.423 230.899 193.385L215.239 170.653Z" fill="#00CDAC"/>
<path opacity="0.2" d="M208.506 217.884L233.601 286.939L224.42 245.116L208.506 217.884Z" fill="black"/>
<path d="M205.411 133.124L182.348 121.044L150.5 125.986L143.91 155.089L160.313 154.458L164.896 143.766V154.282L172.464 153.99L176.857 136.968L179.603 155.089L206.509 154.54L205.411 133.124Z" fill="#2F2E41"/>
<path d="M423.28 290.105L436.365 336.781C436.365 336.781 433.669 378.125 446.252 370.036C459.129 361.758 454.341 326.895 454.341 326.895L446.798 285.02L423.28 290.105Z" fill="#A0616A"/>
<path d="M430.272 159.165L441.078 169.971V221.457C441.078 221.457 447.434 230.991 446.163 233.534C444.892 236.076 443.62 236.076 444.892 237.983C446.163 239.89 447.434 241.161 446.163 242.432C444.892 243.704 444.892 246.882 446.163 248.153C447.434 249.424 449.977 251.331 448.07 253.238C446.163 255.145 443.62 253.874 446.163 260.866C448.705 267.857 453.155 269.764 451.883 272.307C450.612 274.849 450.612 281.206 450.612 281.206L423.28 285.019L417.56 213.194L430.272 159.165Z" fill="#D0CDE1"/>
<path d="M451.884 280.57L420.103 281.841L421.374 295.189L449.341 290.105L451.884 280.57Z" fill="#3F3D56"/>
<path d="M364.485 92.7424L360.671 130.88L399.444 136.6L402.305 114.672L405.165 92.7424H364.485Z" fill="#A0616A"/>
<path opacity="0.1" d="M364.485 92.5356L360.671 130.673L399.444 136.394L402.305 114.465L405.165 92.5356H364.485Z" fill="black"/>
<path d="M280.265 274.214L301.876 320.615C301.876 320.615 305.69 342.226 311.41 342.862C317.131 343.497 322.852 320.615 322.852 320.615L315.224 308.538L306.325 274.214H280.265Z" fill="#A0616A"/>
<path d="M428.201 368.885H306.021C306.989 353.572 307.598 344.132 307.598 344.132L309.22 341.578L317.088 329.215L322.706 320.388L324.665 317.306L325.392 316.165L333.087 314.761L412.474 300.275C413.787 306.154 415.645 311.899 418.024 317.433C418.565 318.665 419.146 319.897 419.769 321.115C421.765 325.01 424.201 328.701 427.096 331.419C427.755 332.037 428.232 333.687 428.541 336.223C429.305 342.437 429.087 353.991 428.201 368.885Z" fill="#2F2E41"/>
<path d="M385.779 105.137C402.629 105.137 416.289 91.4773 416.289 74.627C416.289 57.7768 402.629 44.1169 385.779 44.1169C368.928 44.1169 355.269 57.7768 355.269 74.627C355.269 91.4773 368.928 105.137 385.779 105.137Z" fill="#A0616A"/>
<path d="M317.766 136.918L313.317 134.376C313.317 134.376 293.612 147.724 287.256 177.599C280.9 207.473 276.45 215.101 276.45 215.101C276.45 215.101 270.094 216.372 274.544 220.821C278.993 225.271 278.993 224.635 275.179 227.177C271.365 229.72 268.823 224.635 271.365 229.72C273.908 234.805 277.086 233.534 274.544 236.712C272.001 239.89 267.552 239.89 270.094 242.432C272.637 244.975 267.552 250.696 270.73 253.238C273.908 255.781 275.179 256.416 275.179 260.866C275.16 263.462 275.59 266.043 276.45 268.493H309.503C309.503 268.493 303.147 256.416 305.054 253.874C306.961 251.331 307.596 248.789 306.325 247.517C305.054 246.246 301.24 248.789 305.054 245.611C308.867 242.432 310.139 244.339 308.867 240.526C307.596 236.712 305.054 238.619 307.596 236.712C310.139 234.805 312.046 235.441 310.774 233.534C309.503 231.627 306.961 231.627 309.503 230.356C312.046 229.084 313.952 230.356 313.317 227.177C312.681 223.999 312.046 225.271 313.317 223.999C314.588 222.728 327.936 179.505 327.936 178.234C327.936 176.963 317.766 136.918 317.766 136.918Z" fill="#D0CDE1"/>
<path d="M311.411 265.951L271.366 268.493L281.536 278.027L309.504 278.663L311.411 265.951Z" fill="#3F3D56"/>
<path d="M322.852 313.623L314.589 328.878C314.589 328.878 339.378 332.056 348.277 335.234C357.176 338.412 380.058 342.861 380.058 342.861L385.779 320.614L322.852 313.623Z" fill="#3F3D56"/>
<path d="M395.312 320.615L402.305 341.59L430.272 335.869L427.094 316.165L395.312 320.615Z" fill="#3F3D56"/>
<path d="M406.755 115.307C406.755 115.307 404.848 114.036 400.398 116.578C395.949 119.121 381.329 120.392 374.338 112.765C367.346 105.137 362.261 98.7809 360.354 100.052C358.447 101.323 357.176 115.943 357.176 115.943L350.819 121.028L313.317 134.376L316.496 220.186L322.216 239.89C322.216 239.89 317.767 255.145 323.487 264.044C329.208 272.943 320.309 276.121 320.309 276.121C320.309 276.121 318.402 278.663 319.674 285.02C320.945 291.376 318.402 314.894 318.402 314.894C318.402 314.894 372.431 339.048 429.001 318.072L422.645 293.918L419.467 239.89C419.467 239.89 422.645 230.991 422.01 227.178C421.374 223.364 441.078 169.971 441.078 169.971C441.078 169.971 437.9 143.275 421.374 137.554C404.848 131.834 402.305 126.113 402.305 126.113C402.305 126.113 409.933 117.85 406.755 115.307Z" fill="#D0CDE1"/>
<path d="M355.057 78.5353C355.057 78.5353 351.889 73.7829 353.107 68.6648C353.835 65.759 354.123 62.7604 353.96 59.7692C353.96 59.7692 356.519 51.4828 359.078 46.8522C361.637 42.2216 360.419 40.2719 368.461 38.8096C376.504 37.3473 373.214 26.8675 394.417 38.2003C395.132 39.1991 396.128 39.9636 397.277 40.3974C398.426 40.8311 399.679 40.9146 400.875 40.6374C405.262 39.7844 406.847 45.8773 406.847 45.8773C406.847 45.8773 409.771 44.1713 410.868 46.6085C411.965 49.0457 419.784 45.1458 419.784 61.5966C419.784 78.0475 410.886 92.7423 410.886 92.7423C410.886 92.7423 411.538 65.07 397.037 62.2673C382.536 59.4645 366.938 51.3 363.16 61.7798C359.383 72.2596 355.057 78.5353 355.057 78.5353Z" fill="#2F2E41"/>
<path d="M411.204 85.1148C412.784 85.1148 414.064 83.4074 414.064 81.3011C414.064 79.1948 412.784 77.4873 411.204 77.4873C409.624 77.4873 408.344 79.1948 408.344 81.3011C408.344 83.4074 409.624 85.1148 411.204 85.1148Z" fill="#A0616A"/>
</g>
<defs>
<clipPath id="clip0">
<rect width="480" height="371.085" fill="white"/>
</clipPath>
</defs>
</svg>
